<svg width="750" height="115" viewBox="0 0 750 115" fill="none" xmlns="http://www.w3.org/2000/svg">
<path d="M26.4 25.88C25.632 26.008 24.992 26.392 24.48 27.032C24.032 27.608 23.808 28.28 23.808 29.048V86.552C23.808 87.32 24.032 88.024 24.48 88.664C24.992 89.24 25.632 89.592 26.4 89.72L28.896 90.2V90.968H10.176V90.2L12.672 89.72C13.44 89.592 14.048 89.24 14.496 88.664C15.008 88.024 15.264 87.32 15.264 86.552V28.952C13.792 29.912 12.16 30.584 10.368 30.968C8.64 31.288 7.008 31.512 5.472 31.64C3.68 31.768 1.856 31.736 0 31.544V29.336C1.6 29.272 3.232 29.048 4.896 28.664C6.368 28.344 8 27.864 9.792 27.224C11.584 26.52 13.376 25.592 15.168 24.44H28.8V25.208L26.304 25.688L26.4 25.88Z" fill="#F9F3D4"/>
<path d="M65.7405 23C69.7725 23 73.5805 23.8 77.1645 25.4C80.7485 26.936 83.8525 29.176 86.4765 32.12C89.1645 35 91.2765 38.552 92.8125 42.776C94.3485 47 95.1165 51.8 95.1165 57.176C95.1165 62.744 94.3485 67.672 92.8125 71.96C91.2765 76.184 89.1645 79.736 86.4765 82.616C83.8525 85.496 80.7485 87.672 77.1645 89.144C73.5805 90.616 69.7725 91.352 65.7405 91.352C61.7085 91.352 57.9005 90.616 54.3165 89.144C50.7325 87.608 47.5965 85.4 44.9085 82.52C42.2845 79.576 40.2045 75.992 38.6685 71.768C37.1325 67.48 36.3645 62.616 36.3645 57.176C36.3645 51.864 37.1325 47.096 38.6685 42.872C40.2045 38.648 42.2845 35.064 44.9085 32.12C47.5965 29.176 50.7325 26.936 54.3165 25.4C57.9005 23.8 61.7085 23 65.7405 23ZM65.7405 89.624C68.5565 89.624 71.2125 88.92 73.7085 87.512C76.2045 86.104 78.3805 84.056 80.2365 81.368C82.0925 78.616 83.5645 75.224 84.6525 71.192C85.7405 67.16 86.2845 62.52 86.2845 57.272C86.2845 52.216 85.7405 47.704 84.6525 43.736C83.5645 39.704 82.0925 36.312 80.2365 33.56C78.3805 30.744 76.2045 28.6 73.7085 27.128C71.2125 25.656 68.5565 24.92 65.7405 24.92C62.9245 24.92 60.2685 25.656 57.7725 27.128C55.2765 28.6 53.1005 30.744 51.2445 33.56C49.3885 36.312 47.9165 39.704 46.8285 43.736C45.7405 47.704 45.1965 52.216 45.1965 57.272C45.1965 62.456 45.7405 67.064 46.8285 71.096C47.9165 75.064 49.3885 78.424 51.2445 81.176C53.1005 83.928 55.2765 86.04 57.7725 87.512C60.2685 88.92 62.9245 89.624 65.7405 89.624Z" fill="#F9F3D4"/>
<path d="M135.41 23C139.442 23 143.25 23.8 146.834 25.4C150.418 26.936 153.522 29.176 156.146 32.12C158.834 35 160.946 38.552 162.482 42.776C164.018 47 164.786 51.8 164.786 57.176C164.786 62.744 164.018 67.672 162.482 71.96C160.946 76.184 158.834 79.736 156.146 82.616C153.522 85.496 150.418 87.672 146.834 89.144C143.25 90.616 139.442 91.352 135.41 91.352C131.378 91.352 127.57 90.616 123.986 89.144C120.402 87.608 117.266 85.4 114.578 82.52C111.954 79.576 109.874 75.992 108.338 71.768C106.802 67.48 106.034 62.616 106.034 57.176C106.034 51.864 106.802 47.096 108.338 42.872C109.874 38.648 111.954 35.064 114.578 32.12C117.266 29.176 120.402 26.936 123.986 25.4C127.57 23.8 131.378 23 135.41 23ZM135.41 89.624C138.226 89.624 140.882 88.92 143.378 87.512C145.874 86.104 148.05 84.056 149.906 81.368C151.762 78.616 153.234 75.224 154.322 71.192C155.41 67.16 155.954 62.52 155.954 57.272C155.954 52.216 155.41 47.704 154.322 43.736C153.234 39.704 151.762 36.312 149.906 33.56C148.05 30.744 145.874 28.6 143.378 27.128C140.882 25.656 138.226 24.92 135.41 24.92C132.594 24.92 129.938 25.656 127.442 27.128C124.946 28.6 122.77 30.744 120.914 33.56C119.058 36.312 117.586 39.704 116.498 43.736C115.41 47.704 114.866 52.216 114.866 57.272C114.866 62.456 115.41 67.064 116.498 71.096C117.586 75.064 119.058 78.424 120.914 81.176C122.77 83.928 124.946 86.04 127.442 87.512C129.938 88.92 132.594 89.624 135.41 89.624Z" fill="#F9F3D4"/>
<path d="M205.08 23C209.112 23 212.92 23.8 216.504 25.4C220.088 26.936 223.192 29.176 225.816 32.12C228.504 35 230.616 38.552 232.152 42.776C233.688 47 234.456 51.8 234.456 57.176C234.456 62.744 233.688 67.672 232.152 71.96C230.616 76.184 228.504 79.736 225.816 82.616C223.192 85.496 220.088 87.672 216.504 89.144C212.92 90.616 209.112 91.352 205.08 91.352C201.048 91.352 197.24 90.616 193.656 89.144C190.072 87.608 186.936 85.4 184.248 82.52C181.624 79.576 179.544 75.992 178.008 71.768C176.472 67.48 175.704 62.616 175.704 57.176C175.704 51.864 176.472 47.096 178.008 42.872C179.544 38.648 181.624 35.064 184.248 32.12C186.936 29.176 190.072 26.936 193.656 25.4C197.24 23.8 201.048 23 205.08 23ZM205.08 89.624C207.896 89.624 210.552 88.92 213.048 87.512C215.544 86.104 217.72 84.056 219.576 81.368C221.432 78.616 222.904 75.224 223.992 71.192C225.08 67.16 225.624 62.52 225.624 57.272C225.624 52.216 225.08 47.704 223.992 43.736C222.904 39.704 221.432 36.312 219.576 33.56C217.72 30.744 215.544 28.6 213.048 27.128C210.552 25.656 207.896 24.92 205.08 24.92C202.264 24.92 199.608 25.656 197.112 27.128C194.616 28.6 192.44 30.744 190.584 33.56C188.728 36.312 187.256 39.704 186.168 43.736C185.08 47.704 184.536 52.216 184.536 57.272C184.536 62.456 185.08 67.064 186.168 71.096C187.256 75.064 188.728 78.424 190.584 81.176C192.44 83.928 194.616 86.04 197.112 87.512C199.608 88.92 202.264 89.624 205.08 89.624Z" fill="#F9F3D4"/>
<path d="M337.212 28.472C337.212 27.704 336.956 27.032 336.444 26.456C335.996 25.816 335.388 25.432 334.62 25.304L332.124 24.824V24.056H350.844V24.824L348.348 25.304C347.58 25.432 346.94 25.816 346.428 26.456C345.98 27.032 345.756 27.704 345.756 28.472V85.976C345.756 86.744 345.98 87.448 346.428 88.088C346.94 88.664 347.58 89.016 348.348 89.144L350.844 89.624V90.392H332.124V89.624L334.62 89.144C335.388 89.016 335.996 88.664 336.444 88.088C336.956 87.448 337.212 86.744 337.212 85.976V32.312L295.068 85.592V85.976C295.068 86.744 295.292 87.448 295.74 88.088C296.252 88.664 296.892 89.016 297.66 89.144L300.156 89.624V90.392H281.436V89.624L283.932 89.144C284.7 89.016 285.308 88.664 285.756 88.088C286.268 87.448 286.524 86.744 286.524 85.976V28.472C286.524 27.704 286.268 27.032 285.756 26.456C285.308 25.816 284.7 25.432 283.932 25.304L281.436 24.824V24.056H300.156V24.824L297.66 25.304C296.892 25.432 296.252 25.816 295.74 26.456C295.292 27.032 295.068 27.704 295.068 28.472V82.328L337.212 29.048V28.472Z" fill="#F9F3D4"/>
<path d="M421.37 25.88C420.602 26.008 419.962 26.392 419.45 27.032C419.002 27.608 418.778 28.28 418.778 29.048V86.552C418.778 87.32 419.002 88.024 419.45 88.664C419.962 89.24 420.602 89.592 421.37 89.72L423.866 90.2V90.968H405.146V90.2L407.642 89.72C408.41 89.592 409.018 89.24 409.466 88.664C409.978 88.024 410.234 87.32 410.234 86.552V28.952C408.762 29.912 407.13 30.584 405.338 30.968C403.61 31.288 401.978 31.512 400.442 31.64C398.65 31.768 396.826 31.736 394.97 31.544V29.336C396.57 29.272 398.202 29.048 399.866 28.664C401.338 28.344 402.97 27.864 404.762 27.224C406.554 26.52 408.346 25.592 410.138 24.44H423.77V25.208L421.274 25.688L421.37 25.88Z" fill="#F9F3D4"/>
<path d="M537.116 25.304C536.348 25.432 535.708 25.816 535.196 26.456C534.748 27.032 534.524 27.704 534.524 28.472V85.976C534.524 86.744 534.748 87.448 535.196 88.088C535.708 88.664 536.348 89.016 537.116 89.144L539.612 89.624V90.392H520.892V89.624L523.388 89.144C524.156 89.016 524.764 88.664 525.212 88.088C525.724 87.448 525.98 86.744 525.98 85.976V52.376C523.868 53.464 520.892 54.072 517.052 54.2C513.212 54.264 508.188 53.464 501.98 51.8C501.916 51.8 501.628 51.736 501.116 51.608C500.668 51.416 500.156 51.256 499.58 51.128C499.004 51 498.46 50.872 497.948 50.744C497.5 50.552 497.244 50.456 497.18 50.456C494.044 49.624 491.388 49.272 489.212 49.4C487.1 49.528 485.34 50.008 483.932 50.84V85.976C483.932 86.744 484.156 87.448 484.604 88.088C485.116 88.664 485.756 89.016 486.524 89.144L489.02 89.624V90.392H470.3V89.624L472.796 89.144C473.564 89.016 474.172 88.664 474.62 88.088C475.132 87.448 475.388 86.744 475.388 85.976V28.472C475.388 27.704 475.132 27.032 474.62 26.456C474.172 25.816 473.564 25.432 472.796 25.304L470.3 24.824V24.056H489.02V24.824L486.524 25.304C485.756 25.432 485.116 25.816 484.604 26.456C484.156 27.032 483.932 27.704 483.932 28.472V48.344C485.916 47.128 488.444 46.424 491.516 46.232C494.652 46.04 498.588 46.584 503.324 47.864C509.724 49.528 514.684 50.456 518.204 50.648C521.788 50.84 524.444 50.552 526.172 49.784V28.472C526.172 27.704 525.916 27.032 525.404 26.456C524.956 25.816 524.348 25.432 523.58 25.304L521.084 24.824V24.056H539.804V24.824L537.308 25.304H537.116Z" fill="#F9F3D4"/>
<path d="M582.331 23C587.195 23 591.74 23.896 595.964 25.688C600.251 27.48 603.963 29.944 607.099 33.08C610.299 36.152 612.828 39.768 614.684 43.928C616.54 48.088 617.468 52.536 617.468 57.272C617.468 62.008 616.54 66.456 614.684 70.616C612.828 74.776 610.299 78.424 607.099 81.56C603.963 84.632 600.251 87.064 595.964 88.856C591.74 90.648 587.195 91.544 582.331 91.544C577.467 91.544 572.892 90.648 568.604 88.856C564.38 87.064 560.668 84.632 557.468 81.56C554.332 78.424 551.835 74.776 549.979 70.616C548.123 66.456 547.195 62.008 547.195 57.272C547.195 52.536 548.123 48.088 549.979 43.928C551.835 39.768 554.332 36.152 557.468 33.08C560.668 29.944 564.38 27.48 568.604 25.688C572.892 23.896 577.467 23 582.331 23ZM582.331 89.624C585.979 89.624 589.372 88.792 592.508 87.128C595.708 85.4 598.491 83.096 600.859 80.216C603.291 77.272 605.179 73.848 606.523 69.944C607.931 65.976 608.635 61.752 608.635 57.272C608.635 52.792 607.931 48.6 606.523 44.696C605.179 40.792 603.291 37.368 600.859 34.424C598.491 31.48 595.708 29.176 592.508 27.512C589.372 25.784 585.979 24.92 582.331 24.92C578.683 24.92 575.26 25.784 572.06 27.512C568.924 29.176 566.14 31.48 563.708 34.424C561.34 37.368 559.452 40.792 558.044 44.696C556.7 48.6 556.028 52.792 556.028 57.272C556.028 61.752 556.7 65.976 558.044 69.944C559.452 73.848 561.34 77.272 563.708 80.216C566.14 83.096 568.924 85.4 572.06 87.128C575.26 88.792 578.683 89.624 582.331 89.624Z" fill="#F9F3D4"/>
<path d="M678.784 52.76V28.472C678.784 27.704 678.528 27.032 678.016 26.456C677.568 25.816 676.96 25.432 676.192 25.304L673.696 24.824V24.056H692.416V24.824L689.92 25.304C689.152 25.432 688.512 25.816 688 26.456C687.552 27.032 687.328 27.704 687.328 28.472V86.264C687.328 87.032 687.552 87.736 688 88.376C688.512 88.952 689.152 89.304 689.92 89.432L692.416 89.912V90.68H673.696V89.912L676.192 89.432C676.96 89.304 677.568 88.952 678.016 88.376C678.528 87.736 678.784 87.032 678.784 86.264V56.024C677.824 56.984 676.832 57.848 675.808 58.616C673.952 59.896 671.68 60.92 668.992 61.688C666.368 62.456 663.424 62.84 660.16 62.84C653.696 62.84 648.416 62.232 644.32 61.016C640.288 59.736 637.12 58.04 634.816 55.928C632.512 53.752 630.944 51.256 630.112 48.44C629.28 45.624 628.864 42.648 628.864 39.512V28.472C628.864 27.704 628.608 27.032 628.096 26.456C627.648 25.816 627.04 25.432 626.272 25.304L623.776 24.824V24.056H642.496V24.824L640 25.304C639.232 25.432 638.592 25.816 638.08 26.456C637.632 27.032 637.408 27.704 637.408 28.472V39.512C637.408 46.488 639.456 51.736 643.552 55.256C647.648 58.776 653.28 60.536 660.448 60.536C664.48 60.536 667.936 59.96 670.816 58.808C673.76 57.592 676.064 56.024 677.728 54.104C677.92 53.848 678.112 53.624 678.304 53.432C678.496 53.24 678.656 53.016 678.784 52.76Z" fill="#F9F3D4"/>
<path d="M712.718 57.272C716.814 53.432 721.07 50.872 725.486 49.592C729.902 48.248 733.934 48.024 737.582 48.92C740.334 49.624 742.606 50.872 744.398 52.664C746.254 54.456 747.63 56.568 748.526 59C749.422 61.368 749.87 63.96 749.87 66.776C749.87 69.592 749.422 72.344 748.526 75.032C747.694 77.656 746.414 80.152 744.686 82.52C743.022 84.824 740.942 86.68 738.446 88.088C736.27 89.368 733.966 90.232 731.534 90.68C729.166 91.064 726.83 91.256 724.526 91.256C722.286 91.256 720.142 91.16 718.094 90.968C716.11 90.776 714.414 90.68 713.006 90.68H699.566V89.912L702.062 89.432C702.83 89.304 703.438 88.952 703.886 88.376C704.398 87.736 704.654 87.032 704.654 86.264V28.28C704.654 27.64 704.398 27.032 703.886 26.456C703.438 25.816 702.83 25.432 702.062 25.304L699.566 24.824V24.056H717.806V24.824L715.31 25.304C714.542 25.432 713.902 25.816 713.39 26.456C712.942 27.032 712.718 27.704 712.718 28.472V57.272ZM741.326 66.584C741.454 63.064 741.006 60.216 739.982 58.04C738.958 55.864 737.582 54.264 735.854 53.24C734.19 52.216 732.27 51.704 730.094 51.704C727.982 51.704 725.838 52.088 723.662 52.856C721.486 53.56 719.406 54.584 717.422 55.928C715.502 57.208 713.902 58.68 712.622 60.344V86.552C715.374 88.28 718.382 89.208 721.646 89.336C724.91 89.4 727.95 88.632 730.766 87.032C733.582 85.368 735.982 82.84 737.966 79.448C739.95 76.056 741.038 71.768 741.23 66.584H741.326Z" fill="#F9F3D4"/>
</svg>
