<svg width="75" height="44" viewBox="0 0 75 44" fill="none" xmlns="http://www.w3.org/2000/svg">
<path d="M4.50456 15.9759C4.59048 15.5497 5.7196 14.161 6.05671 13.7715C12.39 6.45355 22.9385 5.77478 30.1893 12.0725C30.2957 12.2971 30.387 12.3764 30.3392 12.5725C29.9318 12.352 29.8406 12.2146 29.4032 12.1589C22.8293 8.23805 15.0053 8.90943 9.85297 14.5832C9.50441 14.967 9.20793 15.4201 8.86698 15.7842C8.33518 16.6203 7.80167 17.4436 7.40483 18.3551C6.17309 21.3191 6.03202 23.1148 6.27861 26.2751C6.46116 27.3582 6.66938 28.3479 7.01343 29.398C7.31445 30.0632 7.6562 30.8124 7.99196 31.4631C10.2878 35.0735 13.1747 37.5669 17.4598 38.4913C20.8559 39.2239 22.2627 38.9022 25.5381 38.1863C27.0743 37.6172 28.2782 37.123 29.6606 36.1729C30.175 35.8196 31.0919 34.9354 31.562 34.715L31.7194 34.7914C31.6856 35.2501 30.6381 36.1253 30.2776 36.4553C29.0525 37.5759 27.6483 38.7398 26.0789 39.3214C25.931 39.3929 25.782 39.4623 25.6319 39.5289C23.3666 40.5377 21.9328 40.7175 19.5029 40.6876C17.033 40.6571 15.3978 40.7543 13.0041 39.8218C9.47821 38.449 5.59077 35.3726 4.03562 31.9024C3.20447 30.5261 2.36082 27.2318 2.35919 25.6369C2.2654 25.1615 2.33336 22.6429 2.38554 22.1203C2.53337 20.4332 3.58416 17.4027 4.50456 15.9759Z" fill="black"/>
<path d="M6.64169 18.8986C6.68997 18.6243 6.75294 18.5553 6.90629 18.3249L7.40505 18.3551C6.17331 21.3191 6.03224 23.1148 6.27883 26.2751C6.46138 27.3582 6.6696 28.3479 7.01366 29.398L6.94089 29.4271C6.75604 29.2817 6.68296 28.7941 6.60053 28.5183L6.47704 28.7813L6.40441 28.9416C5.83748 28.6022 5.66073 25.4697 5.213 24.8908C4.83824 24.7326 4.52439 24.7191 4.12414 24.6757C4.20186 23.5836 3.23186 24.3818 3.46086 22.7733C3.82867 22.6421 4.40579 22.5924 4.80587 22.6021C4.93114 22.6051 4.9836 22.7632 5.0526 22.8857C6.06294 22.7841 5.75244 19.6229 6.64169 18.8986Z" fill="black"/>
<path d="M6.64177 18.8986C6.69005 18.6243 6.75301 18.5553 6.90636 18.3249L7.40513 18.3551C6.17338 21.3191 6.03232 23.1148 6.27891 26.2751C6.46145 27.3582 6.66967 28.3479 7.01373 29.398L6.94097 29.4271C6.75612 29.2817 6.68304 28.7941 6.60061 28.5183L6.47712 28.7813C6.27769 28.3559 5.97842 27.0257 5.8633 26.5225C5.62826 25.0234 5.8273 22.2806 6.15615 20.8128C6.30357 20.1548 6.50977 19.5377 6.64177 18.8986Z" fill="black"/>
<path d="M25.5381 38.1863C27.0743 37.6172 28.2782 37.123 29.6606 36.1729C30.175 35.8196 31.0919 34.9354 31.562 34.715L31.7194 34.7914C31.6856 35.2501 30.6381 36.1253 30.2776 36.4553C29.0525 37.5759 27.6483 38.7398 26.0789 39.3214C26.0897 38.9956 28.734 37.9444 29.1609 37.1178L29.0802 36.9127C29.4282 36.6872 29.4204 36.8381 29.609 36.5112C29.3874 36.4345 26.5606 38.4209 25.5381 38.1863Z" fill="black"/>
<path d="M3.09786 19.8395C3.25436 20.5821 2.78585 21.4341 2.81051 21.9833C2.82761 22.364 3.81456 23.2998 3.09127 24.0414C3.00468 23.8519 2.81177 23.3435 2.67425 23.2578C2.30558 24.2104 3.21753 28.1511 3.04898 28.333L3.01206 28.3382C2.80899 27.6684 2.64831 26.0142 2.35919 25.637C2.2654 25.1615 2.33336 22.643 2.38554 22.1204C2.386 22.3556 2.3755 22.4638 2.45213 22.6931C2.57426 22.512 2.97207 20.3102 3.09786 19.8395Z" fill="black"/>
<path d="M2.35938 25.637C2.64849 26.0142 2.80918 27.6684 3.01224 28.3382C3.14744 28.8917 4.31265 31.4392 4.13083 31.7553C4.10177 31.8056 4.06846 31.8542 4.03581 31.9025C3.20466 30.5262 2.361 27.2319 2.35938 25.637Z" fill="black"/>
<path d="M4.50502 15.9759C4.38296 17.045 3.04609 19.2379 3.09832 19.8395C2.97253 20.3101 2.57471 22.5119 2.45258 22.6931C2.37596 22.4637 2.38646 22.3556 2.386 22.1203C2.53383 20.4332 3.58461 17.4027 4.50502 15.9759Z" fill="black"/>
<path d="M6.90625 18.3249C7.51113 16.8064 7.50841 16.6282 8.86717 15.7842C8.33537 16.6203 7.80185 17.4436 7.40502 18.3551L6.90625 18.3249Z" fill="black"/>
<path d="M6.47692 28.7813L6.60041 28.5182C6.68284 28.7941 6.75592 29.2817 6.94077 29.4271L7.01354 29.398C7.31455 30.0632 7.65631 30.8124 7.99206 31.4631L7.71348 31.5797C6.94224 31.1424 6.86253 29.5284 6.4043 28.9416L6.47692 28.7813Z" fill="black"/>
<path d="M29.9546 22.1169C30.5384 23.2279 31.3821 23.2366 31.0816 25.0824C31.0453 25.4287 31.0182 25.8323 30.9216 26.1623C31.048 26.1544 31.2438 26.0464 31.3667 25.9884C30.9643 26.7349 30.5754 27.4855 30.1079 28.1934C29.7969 28.5352 29.2736 29.137 28.8527 29.3323C26.7065 30.7118 24.4373 31.0623 22.1527 29.7641L21.8506 29.4965C23.3805 29.3064 22.0341 27.9773 24.4876 28.4808C24.7637 28.4575 25.0818 28.4561 25.3173 28.3222L25.2383 28.2007C26.1607 28.0904 27.1354 28.0307 27.9016 27.4866C28.6101 26.9081 29.0642 26.5073 29.4223 25.6713C30.0626 23.1797 28.2531 24.4397 27.8667 23.7304L28.0045 23.2886L28.0042 23.2071C28.2625 22.7566 28.2345 22.6 28.6757 22.3071C29.1714 22.1536 29.4398 22.1503 29.9546 22.1169Z" fill="black"/>
<path d="M22.1523 29.7641C22.3586 29.7325 23.4889 29.9591 23.8991 29.9799C24.9513 30.033 26.049 29.964 27.1023 30.0074C27.4291 30.0209 28.3067 29.3511 28.8524 29.3324C26.7061 30.7118 24.4369 31.0623 22.1523 29.7641Z" fill="black"/>
<path d="M28.0039 23.2886C28.7148 23.847 28.6839 23.2751 29.7993 23.9993C29.9166 24.8103 30.2025 25.3725 29.8072 25.9437L29.4218 25.6713C30.062 23.1797 28.2525 24.4397 27.8662 23.7304L28.0039 23.2886Z" fill="black"/>
<path d="M27.9014 27.4865C28.6099 26.9081 29.064 26.5072 29.4221 25.6713L29.8074 25.9437C29.5461 26.6995 28.7145 27.7454 28.1028 28.166L27.9014 27.4865Z" fill="black"/>
<path d="M27.9013 27.4866L28.1027 28.166C26.5947 28.2733 26.6413 28.8007 24.4873 28.4808C24.7634 28.4575 25.0815 28.4562 25.317 28.3222L25.2379 28.2007C26.1604 28.0904 27.1351 28.0307 27.9013 27.4866Z" fill="black"/>
<path d="M22.6315 21.9852C23.2936 22.2281 23.688 22.0301 24.1256 22.934C24.7939 24.3141 24.0496 26.5076 23.5314 27.878C24.1279 28.0488 24.61 28.1907 25.2375 28.2008L25.3166 28.3222C25.0811 28.4562 24.763 28.4576 24.4869 28.4808C22.0334 27.9773 23.3798 29.3064 21.8498 29.4966C19.768 30.4717 17.7273 31.087 15.583 29.8123C16.024 29.744 16.4461 30.0247 16.8319 30.056C17.603 30.1181 18.6474 30.1521 19.4105 30.0108C20.3412 29.8387 21.6677 29.2106 22.4072 28.6241C22.4543 28.5866 22.8235 27.9826 22.8996 27.8718L22.7975 27.8315C22.5343 27.4259 22.5018 27.2746 22.3758 26.82C22.1485 26.5889 22.128 26.5392 21.9931 26.2428C22.9018 25.5668 22.6683 24.6604 22.6854 23.6062C22.3489 23.3454 22.1798 23.1581 21.9294 22.872L21.8163 22.7428C22.0605 22.4326 22.2472 22.0807 22.5669 21.9611L22.6315 21.9852Z" fill="black"/>
<path d="M30.9217 26.1623C31.0481 26.1543 31.244 26.0464 31.3669 25.9885C30.9645 26.7349 30.5755 27.4855 30.108 28.1934L29.9287 27.7971C30.1254 27.3606 30.6026 26.7825 30.9217 26.1623Z" fill="black"/>
<path d="M23.6572 23.0353C23.6911 23.5333 24.1158 23.8665 24.0695 24.4495C23.9664 25.7494 23.6268 26.7155 22.9757 27.8298L22.8998 27.8718L22.7976 27.8315C22.5344 27.4259 22.5019 27.2746 22.376 26.82C22.74 26.2595 23.2596 24.0799 22.9773 23.4906C23.2782 23.3622 23.4889 23.3084 23.6572 23.0353Z" fill="black"/>
<path d="M25.1854 30.5723C25.1502 30.573 25.1151 30.5734 25.0799 30.5735C25.0975 30.5735 25.1151 30.5734 25.1326 30.5732L25.1854 30.5723Z" fill="black"/>
<path d="M25.3961 30.5639C25.3778 30.565 25.3594 30.5659 25.3411 30.5668C25.3419 30.5668 25.3427 30.5668 25.3434 30.5667L25.3961 30.5639Z" fill="black"/>
<path fill-rule="evenodd" clip-rule="evenodd" d="M25.2697 18.6129C25.698 18.6173 26.1262 18.6278 26.5541 18.6445C27.7288 19.3283 28.0002 19.4752 28.6252 20.694C28.5208 21.0365 28.3303 21.7345 28.2068 22.0409L28.675 22.3071L28.6749 22.3071C28.2338 22.6 28.2618 22.7567 28.0034 23.2071C27.7714 23.0617 27.594 23.0995 27.2935 23.0832C27.1944 22.7643 27.1937 22.4425 27.1764 22.1096C27.1103 21.837 27.0042 21.7153 26.8434 21.4865C26.3132 21.0392 25.9272 20.9594 25.3443 20.6153L25.2284 20.6961C24.8629 20.8506 24.4802 20.9717 24.1036 21.1123C23.7386 21.2485 23.1034 21.6112 22.7809 21.7103L22.5669 21.9611L22.6315 21.9851C23.2936 22.2281 23.6879 22.0301 24.1256 22.934C24.7938 24.3141 24.0496 26.5076 23.5314 27.878C24.1279 28.0488 24.61 28.1907 25.2375 28.2008L25.3166 28.3222C25.0811 28.4562 24.763 28.4576 24.4869 28.4808C22.0525 27.9812 23.359 29.2857 21.8852 29.4918L21.8499 29.4965C19.768 30.4716 17.7273 31.0869 15.583 29.8123C15.3398 29.7637 14.8752 29.4434 14.7234 29.2255C12.0424 27.2107 12.7254 21.7291 15.2081 19.8418C16.1564 19.1209 16.4855 18.9685 17.632 18.6688C18.7345 18.6354 21.0067 18.3324 21.1294 19.9441C21.1968 20.1533 21.2132 20.2824 21.4044 20.3981C22.7229 19.0887 23.3285 18.6082 25.2697 18.6129ZM18.613 20.778C18.2642 20.5636 17.8261 20.5764 17.4409 20.6992C15.4531 21.3331 14.2819 23.8189 14.8333 25.7858C15.0743 26.645 15.7378 27.8662 16.7536 27.8707C16.8197 27.7982 16.8099 27.8367 16.8206 27.7582C17.574 28.0137 19.8153 28.63 20.4559 27.9068C20.7169 28.0015 20.894 27.9352 21.0568 27.7402C21.2852 27.4671 21.5106 27.6025 21.8517 27.6701L21.892 27.5712C21.6834 27.2985 21.6797 26.823 21.6417 26.4652C21.374 26.8202 21.0555 27.4875 20.6045 27.3477C19.6875 26.0488 19.5646 24.3533 20.2847 22.9367C20.5011 22.5034 21.0143 21.6662 21.0379 21.2171C20.835 20.9146 19.5038 20.683 19.1809 20.7823C19.0557 20.8034 18.7536 20.7832 18.613 20.778ZM21.6735 23.0582C21.8802 23.6818 21.7847 25.1213 21.7886 25.8722C21.8366 26.1606 21.7797 26.0634 21.993 26.2428C22.9018 25.5668 22.6683 24.6604 22.6854 23.6062C22.3008 23.3081 22.1349 23.1061 21.8164 22.7428L21.6735 23.0582Z" fill="black"/>
<path d="M27.3756 30.1043C27.3347 30.1207 27.2938 30.1366 27.2528 30.1522C27.311 30.1301 27.369 30.1072 27.427 30.0834L27.3756 30.1043Z" fill="black"/>
<path d="M28.8918 29.3129C28.8819 29.318 28.8721 29.3228 28.8623 29.3274C28.8655 29.3259 28.8686 29.3245 28.8718 29.3229L28.8918 29.3129Z" fill="black"/>
<path d="M29.5624 28.7768C29.5421 28.797 29.5216 28.8171 29.501 28.837C29.5355 28.8036 29.5697 28.7697 29.6035 28.7355L29.5624 28.7768Z" fill="black"/>
<path d="M30.4037 27.7232C30.308 27.8817 30.2095 28.0386 30.1072 28.1934C30.0218 28.2874 29.9201 28.4009 29.8091 28.5203C29.9201 28.4009 30.0217 28.2874 30.1072 28.1935C30.1948 28.0607 30.2797 27.9265 30.3625 27.791L30.4037 27.7232Z" fill="black"/>
<path d="M31.3661 25.9884C31.0894 26.5016 30.8191 27.0168 30.5253 27.5187L30.4445 27.6552C30.77 27.1105 31.0642 26.5483 31.366 25.9885C31.3046 26.0174 31.2249 26.0589 31.1448 26.0941C31.2249 26.0589 31.3046 26.0174 31.3661 25.9884Z" fill="black"/>
<path d="M30.9684 25.9698C30.9661 25.9809 30.9638 25.9918 30.9614 26.0028L30.954 26.0354C30.959 26.0138 30.9638 25.9919 30.9684 25.9698Z" fill="black"/>
<path d="M30.591 22.9913C30.9825 23.451 31.2781 23.8711 31.081 25.0824C31.0605 25.2772 31.043 25.4902 31.0144 25.6979L31.0044 25.7669C31.0391 25.5377 31.0583 25.2988 31.081 25.0824C31.2077 24.3037 31.1308 23.852 30.9557 23.5065C30.9427 23.4809 30.9292 23.4559 30.9152 23.4314C30.8942 23.3946 30.8721 23.359 30.849 23.3241C30.8413 23.3125 30.8335 23.301 30.8256 23.2895C30.8097 23.2666 30.7935 23.244 30.7769 23.2217C30.752 23.1881 30.7263 23.1551 30.6999 23.1223C30.6647 23.0785 30.6283 23.0351 30.591 22.9913Z" fill="black"/>
<path d="M22.9778 23.4906C22.7109 23.1499 22.3669 22.8778 22.5825 22.4597C23.0809 22.3515 23.4307 22.5976 23.6576 23.0353C23.4894 23.3084 23.2787 23.3622 22.9778 23.4906Z" fill="black"/>
<path d="M17.632 18.6688C18.7345 18.6354 21.0068 18.3324 21.1294 19.9441C21.1371 20.2633 21.1301 20.426 20.9286 20.6663C20.2132 20.5202 21.2938 18.9827 18.2249 18.7507C17.7974 18.9945 17.4004 19.0185 16.9335 19.2087C13.1436 20.7519 12.3127 25.5599 14.4571 28.7608C14.5703 28.9298 14.6631 29.026 14.7234 29.2255C12.0424 27.2107 12.7254 21.7292 15.2081 19.8418C16.1565 19.1209 16.4855 18.9685 17.632 18.6688Z" fill="black"/>
<path d="M25.2705 18.6133C25.6987 18.6177 26.1269 18.6279 26.5547 18.6446C27.7293 19.3283 28.001 19.4756 28.626 20.6944C28.5216 21.037 28.3305 21.7348 28.207 22.0411L28.6758 22.3067C28.2346 22.5996 28.2623 22.7567 28.0039 23.2071C27.7718 23.0617 27.5945 23.0994 27.2939 23.0831C27.1949 22.7642 27.194 22.4423 27.1768 22.1094C27.3829 22.1946 27.425 22.217 27.6465 22.2286C28.3742 21.9335 28.079 20.7102 27.9619 20.1163C27.5438 19.7019 27.2506 19.4228 26.793 19.0547C25.7254 18.9256 24.4825 18.9204 23.4639 19.3135C23.0884 19.4608 22.7357 19.6603 22.416 19.9053C22.1657 20.0983 21.6786 20.6703 21.4385 20.668L21.4043 20.3985C22.7229 19.089 23.3292 18.6086 25.2705 18.6133Z" fill="black"/>
<path d="M21.7888 25.8722L21.7023 25.9243L21.5643 25.8535C21.4056 25.4954 21.4497 23.3761 21.6738 23.0582C21.8804 23.6818 21.7849 25.1213 21.7888 25.8722Z" fill="black"/>
<path d="M22.7812 21.7103C23.2936 21.1881 24.4934 20.1896 25.2287 20.6961C24.8631 20.8506 24.4805 20.9716 24.1039 21.1122C23.7389 21.2484 23.1037 21.6112 22.7812 21.7103Z" fill="black"/>
<path d="M25.3447 20.6153C25.8741 20.281 27.1995 20.6789 26.8439 21.4865C26.3137 21.0392 25.9276 20.9593 25.3447 20.6153Z" fill="black"/>
<path d="M19.1816 20.7823C19.5045 20.683 20.8357 20.9146 21.0386 21.2171C21.015 21.6662 20.5018 22.5034 20.2855 22.9367C19.5653 24.3533 19.6882 26.0488 20.6052 27.3477C21.0562 27.4876 21.3747 26.8203 21.6424 26.4653C21.6804 26.823 21.6842 27.2985 21.8928 27.5712L21.8524 27.6701C21.5113 27.6024 21.286 27.4671 21.0575 27.7402C20.8947 27.9352 20.7176 28.0015 20.4566 27.9068C19.4654 26.7057 19.4951 24.8769 19.7829 23.417C19.8989 22.8281 20.2241 21.9049 20.2445 21.3459C20.0576 21.1346 19.4669 20.9098 19.1816 20.7823Z" fill="black"/>
<path d="M16.8209 27.7583C16.8102 27.8367 16.82 27.7982 16.7539 27.8707C15.7381 27.8662 15.0746 26.6451 14.8336 25.7858C14.2822 23.8189 15.4534 21.3332 17.4412 20.6993C17.8263 20.5764 18.2644 20.5637 18.6132 20.778C18.039 20.859 17.5232 20.9154 17.0132 21.2135C14.6868 22.5735 14.2403 25.8865 16.5117 27.5445C16.6131 27.6181 16.7162 27.6896 16.8209 27.7583Z" fill="black"/>
<path d="M40.1607 17.8479C40.5012 17.7477 40.5395 17.675 40.8287 17.7558C40.7387 18.8158 40.64 19.9402 40.565 20.9957C40.4743 22.2749 40.6058 25.2757 40.2804 26.3671C41.1713 26.3768 41.7615 26.4015 42.6493 26.2352C42.8527 25.3566 43.3393 23.0714 44.1088 22.5258C44.2404 22.4324 44.5773 22.5072 44.7462 22.538L45.0933 22.4774C45.208 22.2645 45.2314 22.1872 45.4606 22.0868C45.9308 22.8597 43.4513 25.933 44.1235 27.8295C45.5928 28.7303 47.038 28.4093 48.4672 27.5945C48.4135 28.0942 48.3629 28.7196 48.2764 29.204C48.0668 29.4854 47.8411 29.8078 47.4758 29.8915C47.3098 29.9761 47.1158 30.0705 46.9383 30.1295C45.5862 30.5668 44.1047 30.0924 43.2629 28.9528C43.0784 28.6981 42.8063 28.1255 42.5911 28.0165C42.2684 28.0762 40.2455 28.0571 40.2469 28.2552C40.2514 28.8362 39.4826 30.175 38.9119 30.0948C38.6502 29.2897 38.6548 20.0918 38.8376 18.6758C38.9638 18.4504 39.1602 18.3823 39.3933 18.2644C39.5876 18.1398 39.9462 17.9626 40.1607 17.8479Z" fill="black"/>
<path d="M40.1608 17.8479C40.5012 17.7477 40.5396 17.675 40.8288 17.7558C40.7388 18.8158 40.6401 19.9402 40.5651 20.9957C40.4744 22.2749 40.6059 25.2757 40.2804 26.3671C41.1714 26.3768 41.7616 26.4015 42.6494 26.2352C42.8528 25.3566 43.3394 23.0714 44.1089 22.5258C44.2404 22.4324 44.5774 22.5072 44.7462 22.538L45.0933 22.4774C45.2081 22.2645 45.2315 22.1872 45.4607 22.0868C45.9309 22.8597 43.4514 25.933 44.1236 27.8295L43.8769 28.0876C43.6938 27.5005 43.66 27.464 43.6826 26.8633C43.3966 26.8335 43.3254 26.812 43.0628 26.9352C43.0488 26.7384 43.0045 26.5274 42.9693 26.3317C42.535 26.694 40.3094 26.7707 39.9794 26.4625L40.121 25.772C39.6986 25.5544 39.5552 25.5825 39.093 25.588C39.1495 25.1202 39.0511 24.4089 39.0466 23.9019C39.033 22.3779 38.8505 20.7906 39.1055 19.2793C39.1523 19.0022 39.4258 18.4676 39.3933 18.2644C39.5876 18.1398 39.9462 17.9626 40.1608 17.8479Z" fill="black"/>
<path d="M45.0938 22.4774C45.2086 22.2645 45.2319 22.1872 45.4611 22.0868C45.9314 22.8597 43.4518 25.9329 44.124 27.8294L43.8774 28.0876C43.6943 27.5004 43.6604 27.464 43.6831 26.8633C43.3971 26.8335 43.3259 26.812 43.0632 26.9351C43.0493 26.7384 43.005 26.5274 42.9697 26.3317C43.2725 24.7794 43.5582 23.5881 44.7467 22.538L45.0938 22.4774Z" fill="black"/>
<path d="M45.0937 22.4774C45.2084 22.2645 45.2318 22.1872 45.461 22.0868C45.9312 22.8597 43.4517 25.9329 44.1239 27.8294L43.8773 28.0876C43.6941 27.5004 43.6603 27.464 43.683 26.8633C43.9052 25.7643 45.0668 22.9017 45.0937 22.4774Z" fill="black"/>
<path d="M40.1609 17.8479C40.5014 17.7477 40.5397 17.675 40.8289 17.7558C40.7389 18.8158 40.6402 19.9402 40.5652 20.9957C40.4745 22.2749 40.606 25.2757 40.2805 26.3671C41.1715 26.3768 41.7617 26.4015 42.6495 26.2352C42.8529 25.3566 43.3395 23.0714 44.109 22.5258C44.2405 22.4324 44.5775 22.5072 44.7463 22.538C43.5579 23.5881 43.2722 24.7795 42.9694 26.3317C42.5351 26.694 40.3095 26.7707 39.9795 26.4625L40.1211 25.772C40.4326 24.2041 40.1923 21.9631 40.2948 20.3304C40.3252 19.8477 40.4061 18.1968 40.1609 17.8479Z" fill="black"/>
<path d="M44.1235 27.8294C45.5928 28.7303 47.038 28.4093 48.4672 27.5945C48.4135 28.0942 48.3629 28.7195 48.2764 29.204C48.0667 29.4854 47.841 29.8078 47.4758 29.8914C46.543 29.5166 45.4812 30.7614 43.6445 28.9874C43.9923 28.6668 43.9941 28.5266 43.8769 28.0876L44.1235 27.8294Z" fill="black"/>
<path d="M39.0928 25.588C39.555 25.5825 39.6984 25.5543 40.1209 25.7719L39.9792 26.4625C40.3092 26.7707 42.5348 26.694 42.9691 26.3317C43.0043 26.5274 43.0486 26.7384 43.0626 26.9351L42.9269 27.0611C42.5861 27.1767 42.4134 27.4456 42.1867 27.7243C41.8371 27.7319 40.0895 27.6781 39.9028 27.7444C39.772 28.3201 39.772 29.1988 39.2847 29.4958L39.1239 29.3841C38.954 29.0103 39.0335 26.0922 39.0928 25.588Z" fill="black"/>
<path d="M43.0626 26.9352C43.3253 26.812 43.3965 26.8335 43.6825 26.8633C43.6599 27.464 43.6937 27.5005 43.8768 28.0876C43.994 28.5266 43.9923 28.6668 43.6445 28.9874C43.2409 28.4666 42.8321 27.7173 42.9269 27.0611L43.0626 26.9352Z" fill="black"/>
<path d="M68.9565 23.8043C69.4003 23.6034 70.1196 24.2818 70.5877 24.5258C70.6634 24.497 70.8207 24.4023 70.8992 24.3575C71.0722 24.1805 71.1417 24.0771 71.3914 24.0382C71.8278 24.3894 70.7799 26.2731 70.61 26.863C70.0139 26.9879 70.0303 27.0244 69.8018 27.6202C69.5388 27.5786 69.4746 27.5303 69.2447 27.4019L69.7617 26.4421C69.7017 26.3636 69.687 26.3657 69.6015 26.3067L69.4142 26.4667C68.6084 25.867 67.9278 25.299 68.2617 24.2135C68.5222 24.1375 68.7354 23.9629 68.9565 23.8043Z" fill="black"/>
<path d="M70.8997 24.3575C71.0727 24.1805 71.1421 24.0771 71.3919 24.0382C71.8283 24.3894 70.7803 26.273 70.6105 26.863C70.0143 26.9879 70.0307 27.0243 69.8022 27.6202C69.5392 27.5785 69.475 27.5303 69.2451 27.4019L69.7621 26.442C69.7401 26.1904 69.9944 26.1707 70.1713 26.1228C70.6324 25.6893 70.9495 25.443 71.1676 24.8377C71.1344 24.5161 71.1627 24.6222 70.8997 24.3575Z" fill="black"/>
<path d="M68.957 23.8043C69.4008 23.6034 70.1201 24.2818 70.5882 24.5258C70.7026 24.5657 70.6953 24.5688 70.7815 24.6559C70.3608 24.8294 69.1353 24.2791 68.957 23.8043Z" fill="black"/>
<path d="M69.8022 27.6202C70.0307 27.0243 70.0143 26.9879 70.6104 26.863C70.4475 27.4859 70.1653 28.6939 69.7244 29.137C69.7373 28.9451 69.7474 28.9281 69.6585 28.7657L69.5625 28.8136C68.3946 30.683 66.904 29.2564 66.7959 27.4189C67.0115 27.4616 67.3533 27.54 67.5602 27.5633C67.8148 27.8228 68.1323 28.0887 68.4082 28.3309C68.7267 27.9162 68.853 27.752 69.2451 27.4019C69.475 27.5303 69.5392 27.5785 69.8022 27.6202Z" fill="black"/>
<path d="M69.8024 27.6202C70.0309 27.0243 70.0145 26.9879 70.6107 26.863C70.4478 27.4859 70.1656 28.6939 69.7246 29.137C69.7375 28.9451 69.7476 28.9281 69.6587 28.7657L69.5628 28.8136C69.5554 28.4097 69.7037 28.0272 69.8024 27.6202Z" fill="black"/>
<path d="M66.6687 18.5634C66.5351 20.7653 66.5044 22.7508 66.6338 24.9662C66.6687 25.5599 66.6869 26.8605 66.7957 27.4189C66.9038 29.2564 68.3944 30.683 69.5623 28.8136L69.6583 28.7657C69.7472 28.9281 69.7371 28.9451 69.7242 29.137C69.5076 29.6371 68.9069 29.8786 68.4436 30.1007C66.3987 29.3199 66.4626 27.692 66.3614 25.6713C66.2505 23.4642 66.1406 20.9838 66.4434 18.8144C66.4434 18.8144 66.6516 18.5823 66.6687 18.5634Z" fill="black"/>
<path d="M68.4994 17.0792C68.6148 17.7434 68.0109 23.0422 67.795 23.9998L67.785 24.0421C67.583 24.7691 67.0648 28.3843 68.7259 27.6396C68.9457 27.541 69.4082 26.7273 69.4145 26.4667C68.6087 25.8671 67.9281 25.299 68.2619 24.2135L68.2619 24.2134C68.5225 24.1374 68.7356 23.9629 68.9567 23.8043C69.4004 23.6034 70.1198 24.2819 70.5879 24.5258C70.6636 24.497 70.8209 24.4023 70.8994 24.3575C71.0724 24.1805 71.1419 24.0771 71.3916 24.0382C71.828 24.3894 70.7801 26.2731 70.6102 26.863C70.4473 27.4859 70.1651 28.6939 69.7242 29.1371C69.5076 29.6371 68.9069 29.8786 68.4436 30.1007C66.3987 29.3199 66.4626 27.692 66.3614 25.6713C66.2505 23.4643 66.1406 20.9838 66.4434 18.8144C66.4434 18.8144 66.6517 18.5824 66.6687 18.5635C66.9325 18.419 67.4853 17.7178 68.0086 17.4399L68.3574 17.074L68.4994 17.0792Z" fill="black"/>
<path d="M68.0091 17.4399L68.3579 17.074L68.4999 17.0791C68.6171 17.7539 67.992 23.2116 67.7855 24.042C67.5835 24.7691 67.0651 28.3843 68.7263 27.6396C68.9461 27.5411 69.4086 26.7273 69.4149 26.4667L69.6022 26.3067C69.6877 26.3657 69.7023 26.3636 69.7623 26.442L69.2454 27.4019C68.8533 27.7521 68.727 27.9162 68.4085 28.3309C68.1326 28.0887 67.8151 27.8228 67.5605 27.5633C66.7864 25.6699 68.7186 18.5401 68.0091 17.4399Z" fill="black"/>
<path d="M31.5396 18.0021C31.8277 18.1847 32.2588 18.5269 32.5456 18.742C32.892 19.0546 33.2067 19.3568 33.5991 19.612C34.1954 19.9255 35.8846 20.6743 36.1019 21.1943C36.0468 21.3326 36.0559 21.3956 35.954 21.4388C35.3679 21.6878 34.3018 21.628 33.6694 21.5659C33.6684 22.6163 33.7173 24.3294 33.6261 25.3271L33.5188 25.411C33.4959 25.7588 33.5385 25.6338 33.3518 25.9243L33.3393 25.8833C33.1344 26.2727 33.1044 26.4195 33.006 26.8352C32.8624 27.9089 32.8284 28.8674 32.8231 29.9504L32.835 30.2364C32.6527 30.3877 32.5028 30.3565 32.2288 30.3905C32.1297 30.3804 32.0181 30.3332 31.9221 30.2992C31.6343 29.9026 31.7164 27.37 31.7107 26.7131C31.7193 26.4181 31.7341 26.2841 31.6593 25.9996L31.4931 25.9566L31.3662 25.9885C31.2433 26.0464 31.0475 26.1544 30.9211 26.1623C31.0177 25.8323 31.0448 25.4287 31.0811 25.0824C31.3815 23.2366 30.5379 23.2279 29.9541 22.117C30.7426 22.4921 30.8558 22.9264 31.2865 23.6697C31.655 21.488 31.2094 19.7839 31.5396 18.0021Z" fill="black"/>
<path d="M31.5396 18.0021C31.8277 18.1847 32.2588 18.5269 32.5456 18.742L32.2383 19.3039L31.9943 19.3327C31.7235 19.8434 31.7976 25.0078 31.9801 25.3895C31.9014 25.7959 31.813 26.3227 31.7107 26.7131C31.7193 26.4181 31.7341 26.2842 31.6593 25.9996L31.4931 25.9566L31.3662 25.9885C31.2433 26.0464 31.0475 26.1544 30.9211 26.1623C31.0177 25.8323 31.0448 25.4287 31.0811 25.0824C31.3815 23.2366 30.5379 23.2279 29.9541 22.117C30.7426 22.4921 30.8558 22.9264 31.2865 23.6697C31.655 21.488 31.2094 19.7839 31.5396 18.0021Z" fill="black"/>
<path d="M30.9209 26.1623C31.0175 25.8323 31.0446 25.4287 31.0809 25.0824L31.1953 25.2826L31.4417 25.1084C31.6855 25.3388 31.4809 25.6657 31.4929 25.9565L31.366 25.9885C31.2431 26.0464 31.0473 26.1543 30.9209 26.1623Z" fill="black"/>
<path d="M33.6 19.612C34.1963 19.9255 35.8854 20.6743 36.1027 21.1943C36.0476 21.3326 36.0567 21.3956 35.9548 21.4388C35.3688 21.6878 34.3027 21.6281 33.6703 21.5659C33.6693 22.6163 33.7181 24.3294 33.6269 25.3271L33.5196 25.4111C33.4968 25.7588 33.5393 25.6338 33.3527 25.9243L33.3401 25.8834C33.1353 26.2727 33.1052 26.4195 33.0068 26.8352C33.0227 25.2299 33.1083 23.6256 33.2633 22.0275C33.2896 21.7803 33.3754 21.5255 33.4115 21.1546C33.9105 21.2448 35.3224 21.5674 35.6601 21.2056C35.4612 20.792 33.9518 20.3881 33.2168 19.8438L33.6 19.612Z" fill="black"/>
<path d="M31.9802 25.3895C32.445 26.1054 31.8307 29.8449 32.6833 30.1371C32.7449 30.067 32.7855 30.0341 32.8231 29.9504L32.835 30.2364C32.6527 30.3877 32.5029 30.3565 32.2289 30.3905C32.1298 30.3804 32.0181 30.3332 31.9222 30.2992C31.6344 29.9026 31.7164 27.37 31.7108 26.7131C31.813 26.3227 31.9015 25.7959 31.9802 25.3895Z" fill="black"/>
<path d="M32.2383 19.3039L32.5456 18.742C32.892 19.0546 33.2067 19.3568 33.5991 19.612L33.216 19.8437C32.8862 19.6707 32.5603 19.4908 32.2383 19.3039Z" fill="black"/>
<path d="M12.4049 18.1956C12.4996 18.227 12.5092 18.2583 12.5839 18.3357C12.6681 20.0956 12.4896 22.2077 12.6139 23.9903C12.6561 24.5962 12.3122 30.0816 12.1933 30.295C11.9199 30.4248 11.3882 30.4526 11.1401 30.2631C10.7489 29.7689 10.8225 28.6265 10.8062 27.9596C10.6479 25.8587 10.5971 23.772 10.4587 21.6614C9.88271 21.6792 8.18373 21.8614 8.18457 21.069C8.51499 20.4684 9.70993 20.0283 10.3229 19.6567C11.0789 19.1983 11.7042 18.729 12.4049 18.1956Z" fill="black"/>
<path d="M12.0492 18.7832C12.2487 18.8195 12.1829 18.7772 12.2969 18.9391C12.43 21.0706 12.5002 28.2025 11.7251 29.9144C11.4805 30.0948 11.5901 30.0684 11.3173 30.0337C10.9509 29.6732 11.0565 28.1786 11.0502 27.5598C11.0801 27.0924 10.6474 20.8968 10.6118 20.8394C10.4591 21.0173 10.3678 21.1115 10.1946 21.2697L9.86052 21.2261L9.78493 21.0918C9.53199 20.9707 9.32429 21.0473 9.01065 21.0812L8.93848 21.0018C9.72601 20.5167 11.6028 19.5318 12.0135 18.8442L12.0492 18.7832Z" fill="black"/>
<path d="M51.7686 24.2104C52.9974 23.8805 53.441 24.1331 54.3105 24.9937C54.6915 27.7948 53.2225 29.4958 50.668 30.4116C48.585 29.3924 48.6046 26.9734 50.0518 25.4663C50.4261 24.8549 51.1427 24.5065 51.7686 24.2104ZM51.2529 25.6411C50.9097 26.2911 50.2854 27.4092 50.8955 28.0317C51.3423 28.1895 51.6563 28.0382 52.0947 27.8657L52.5176 27.3101C53.1733 26.3124 53.1694 25.3553 51.8135 25.1616L51.2529 25.6411Z" fill="black"/>
<path d="M50.4912 25.5442C50.6907 25.5723 51.0666 25.6363 51.252 25.6409C50.9087 26.2908 50.285 27.4089 50.8945 28.0315C51.3414 28.1894 51.6562 28.0379 52.0947 27.8655L52.5176 27.3098V27.3108C52.6669 27.5907 52.6078 27.5876 52.8447 27.6975C52.8786 27.9342 52.8774 28.0949 53.0508 28.2639L53.1543 28.301C52.9722 28.7354 52.5103 29.1509 52.1162 29.3987C50.6106 30.3454 50.1322 30.0456 49.3135 28.6155C49.3184 26.5712 49.5779 27.0908 50.4629 25.593L50.4912 25.5442Z" fill="black"/>
<path d="M52.8451 27.6979C53.2309 26.5725 53.6548 25.6012 52.5322 24.7735L52.5814 24.6951C53.3914 24.6069 53.3021 24.4969 53.8976 24.9738L53.9401 25.0078C54.0441 26.5308 53.9408 26.9664 53.1546 28.3007L53.0513 28.2639C52.8779 28.0949 52.879 27.9345 52.8451 27.6979Z" fill="black"/>
<path d="M50.0508 25.4659C50.4251 24.8544 51.1419 24.5063 51.7678 24.2103C51.9083 24.2912 52.05 24.3703 52.1926 24.4473C52.0088 24.7937 51.9258 24.7663 51.8131 25.1615L51.2518 25.6408C51.0666 25.6362 50.6906 25.5724 50.491 25.5443C50.2751 25.5752 50.2482 25.5613 50.0508 25.4659Z" fill="black"/>
<path d="M56.7977 26.8987C57.1775 27.1063 57.1434 28.0352 57.0963 28.4208C57.5923 28.0758 57.3324 28.5082 57.9098 28.1855C57.9453 28.2122 58.0758 28.2598 58.1253 28.2795C58.3775 28.1772 58.2977 28.2223 58.4655 27.9762L58.6434 28.2421C59.0072 28.1112 61.9932 28.0002 62.6825 27.9037C63.5491 27.6896 64.5792 27.4168 65.4827 27.3589C65.7321 27.3433 65.7418 27.4682 65.7952 27.6598C65.6742 27.9225 65.6403 27.969 65.4551 28.1928C64.8342 29.2075 64.0971 29.533 62.9892 29.8672C62.1003 30.1351 58.2513 30.2253 57.5414 29.8842C56.1743 29.5795 56.6257 27.8846 56.7977 26.8987Z" fill="black"/>
<path d="M58.8484 29.7679C60.0369 29.6773 61.6087 29.8765 62.7655 29.6135C62.9727 29.5663 63.7645 29.0901 64.1455 28.9569L64.1688 29.2029C64.5707 29.3532 64.9583 28.3454 65.4557 28.1927C64.8348 29.2074 64.0977 29.5329 62.9898 29.8671C62.1009 30.135 58.2519 30.2253 57.542 29.8841C58.0011 29.6346 58.2997 30.0802 58.8484 29.7679Z" fill="black"/>
<path d="M56.7977 26.8987C57.1775 27.1063 57.1434 28.0352 57.0963 28.4208C57.2546 29.5857 57.7824 29.7037 58.8478 29.7679C58.2991 30.0802 58.0005 29.6347 57.5414 29.8842C56.1743 29.5795 56.6257 27.8846 56.7977 26.8987Z" fill="black"/>
<path d="M58.6436 28.242C59.0074 28.1112 61.9934 28.0002 62.6827 27.9037L62.7333 28.0022C62.478 28.3309 62.3234 28.3312 61.8682 28.3864C61.1737 28.4707 59.3203 28.5557 58.7255 28.3534L58.6436 28.242Z" fill="black"/>
<path d="M55.6544 23.8158C55.8965 23.6023 55.8114 23.6176 56.0978 23.5721C56.5035 23.9039 56.1086 24.4699 56.867 24.3571C57.3882 24.2797 57.9173 24.0531 58.42 23.9362L59.0709 24.8145C58.525 25.9454 57.9062 26.7557 58.4661 27.9762C58.2983 28.2222 58.3781 28.1771 58.1259 28.2795C58.0764 28.2597 57.9459 28.2122 57.9104 28.1855C57.333 28.5082 57.5929 28.0758 57.0969 28.4207C57.144 28.0352 57.1781 27.1062 56.7983 26.8987L56.9029 26.4635C56.2495 26.5451 55.4695 26.6881 55.1462 25.9534C54.9718 25.5571 55.1908 24.5678 55.3541 24.1805C55.4591 24.0632 55.5561 23.9386 55.6544 23.8158Z" fill="black"/>
<path d="M55.6544 23.8158C55.8965 23.6023 55.8114 23.6176 56.0978 23.5721C56.5035 23.9039 56.1086 24.4699 56.867 24.3571C57.3882 24.2797 57.9173 24.0531 58.42 23.9362L59.0709 24.8145C58.525 25.9454 57.9062 26.7557 58.4661 27.9762C58.2983 28.2222 58.3781 28.1771 58.1259 28.2795C58.0764 28.2597 57.9459 28.2122 57.9104 28.1855C57.333 28.5082 57.5929 28.0758 57.0969 28.4207C57.144 28.0352 57.1781 27.1062 56.7983 26.8987L56.9029 26.4635C56.2495 26.5451 55.4695 26.6881 55.1462 25.9534C54.9718 25.5571 55.1908 24.5678 55.3541 24.1805C55.8588 24.8093 55.1483 25.5224 55.5247 26.1755C56.1034 26.586 56.4923 26.1217 56.9692 25.7327C57.2294 25.7764 57.0871 26.2165 57.4663 26.5558C58.1845 26.7006 58.5233 25.0789 58.7221 24.5379L58.5944 24.3359C57.8936 24.041 56.4711 25.444 55.6544 23.8158Z" fill="black"/>
<path d="M56.9025 26.4636C57.8489 26.8654 57.911 27.1423 57.9099 28.1855C57.3326 28.5082 57.5925 28.0758 57.0965 28.4208C57.1436 28.0352 57.1777 27.1062 56.7979 26.8987L56.9025 26.4636Z" fill="black"/>
<path d="M31.3972 5.27625C31.5884 6.40421 31.6671 11.858 31.9198 12.311C31.8794 12.5931 31.9249 12.6724 32.1206 12.9502L32.608 13.1274L32.5886 13.2305L32.1538 13.1403C32.0168 13.2339 32.0378 13.189 32.0048 13.3176C31.6229 13.2961 31.473 12.6423 31.1691 12.472C31.0183 12.3875 30.9474 12.2897 30.8359 12.1596C30.8395 10.1196 30.9805 7.98937 31.052 5.93892C31.305 5.68865 31.3198 5.62788 31.3972 5.27625Z" fill="black"/>
<path d="M30.1894 12.0725C30.3753 12.2159 30.4577 12.302 30.6956 12.3367L30.8358 12.1597C30.9473 12.2897 31.0182 12.3876 31.169 12.472C31.4729 12.6423 31.6228 13.2962 32.0047 13.3176C32.7379 13.282 32.3938 13.3276 32.7678 13.744C32.6384 13.7924 32.4069 13.8699 32.2953 13.9327C32.2633 14.313 32.1859 14.3395 31.8268 14.4639L31.6717 14.5654C31.4111 14.8157 31.366 14.9578 30.9702 14.9164C30.4108 14.5853 30.2224 14.8535 29.6994 15.1858L29.332 14.9391C29.5962 14.5865 30.0281 14.1527 30.3403 13.8221C29.8723 13.8004 29.5826 13.7761 29.1201 13.7032C29.7524 13.6174 29.8848 13.8307 30.5324 13.4285L30.5124 13.2855C30.2347 13.0809 29.891 13.1027 29.5418 13.085C29.797 13.0668 29.9185 13.0708 30.1532 12.9651L30.1663 12.8257C29.9518 12.5844 29.6577 12.364 29.4033 12.159C29.8407 12.2146 29.9319 12.3521 30.3393 12.5725C30.3871 12.3765 30.2958 12.2971 30.1894 12.0725Z" fill="black"/>
<path d="M29.1206 13.7031C28.2577 13.6563 24.8079 13.5645 24.268 13.3791L24.2451 13.2818C24.546 13.0989 28.8353 13.088 29.5423 13.085C29.8915 13.1027 30.2352 13.0809 30.513 13.2854L30.5329 13.4285C29.8853 13.8307 29.7529 13.6174 29.1206 13.7031Z" fill="black"/>
<path d="M32.6081 13.1274C33.1975 13.0488 38.1793 13.1599 38.5679 13.3255C38.0146 13.4795 33.5894 13.6868 32.768 13.744C32.394 13.3276 32.7381 13.282 32.0049 13.3176C32.0379 13.189 32.0169 13.2339 32.1539 13.1404L32.5887 13.2305L32.6081 13.1274Z" fill="black"/>
<path d="M33.0067 26.8352C33.105 26.4195 33.1351 26.2727 33.34 25.8833L33.3525 25.9243C33.5392 25.6338 33.4966 25.7587 33.5195 25.411L33.6267 25.327C33.5712 26.1085 33.3399 29.9407 33.2193 30.3026C32.9791 30.4932 32.721 30.448 32.4217 30.4144C32.3576 30.4071 32.2935 30.3991 32.2295 30.3904C32.5035 30.3564 32.6533 30.3877 32.8356 30.2364L32.8237 29.9504C32.8291 28.8674 32.863 27.9089 33.0067 26.8352Z" fill="black"/>
<path d="M31.9198 12.311C32.5688 11.7292 33.2635 11.1254 33.895 10.5309L34.0458 10.5442C34.1105 10.9316 32.491 12.5251 32.1205 12.9502C31.9249 12.6725 31.8794 12.5931 31.9198 12.311Z" fill="black"/>
<path d="M32.2956 13.9326C33.0086 14.9879 33.7521 15.272 34.3646 16.5456C33.6156 16.0483 32.6411 15.0822 31.8271 14.4639C32.1862 14.3394 32.2636 14.313 32.2956 13.9326Z" fill="black"/>
<path d="M30.9707 14.9164C31.3665 14.9578 31.4115 14.8157 31.6721 14.5654C31.5787 15.4057 31.5117 16.2324 31.2924 17.0508C31.1057 16.295 31.0518 15.6842 30.9707 14.9164Z" fill="black"/>
<path d="M29.6997 15.1858C29.3483 15.5382 28.9919 15.9553 28.542 16.1472L28.4531 16.0868C28.6551 15.6098 28.9809 15.3498 29.3322 14.9391L29.6997 15.1858Z" fill="black"/>
<path d="M31.0524 5.93892C31.0399 5.06286 31.099 4.18725 31.2292 3.32074C31.2969 3.97155 31.353 4.62346 31.3976 5.27625C31.3202 5.62788 31.3054 5.68865 31.0524 5.93892Z" fill="black"/>
</svg>
