<svg width="500" height="46" viewBox="0 0 500 46" fill="none" xmlns="http://www.w3.org/2000/svg">
<path d="M17.6 1.92012C17.088 2.00545 16.6614 2.26145 16.32 2.68811C16.0214 3.07211 15.872 3.52011 15.872 4.03212V42.3681C15.872 42.8801 16.0214 43.3495 16.32 43.7761C16.6614 44.1601 17.088 44.3948 17.6 44.4801L19.264 44.8001V45.3121H6.78403V44.8001L8.44803 44.4801C8.96003 44.3948 9.36536 44.1601 9.66403 43.7761C10.0054 43.3495 10.176 42.8801 10.176 42.3681V3.96812C9.1947 4.60812 8.1067 5.05612 6.91203 5.31211C5.76003 5.52545 4.67203 5.67478 3.64803 5.76012C2.45336 5.84545 1.23736 5.82411 3.05176e-05 5.69611V4.22411C1.0667 4.18145 2.1547 4.03211 3.26403 3.77612C4.24536 3.56278 5.33336 3.24278 6.52803 2.81612C7.7227 2.34678 8.91736 1.72811 10.112 0.960114H19.2V1.47211L17.536 1.79211L17.6 1.92012ZM43.827 0.000114441C46.515 0.000114441 49.0537 0.533449 51.443 1.60012C53.8324 2.62412 55.9017 4.11745 57.651 6.08012C59.443 8.00012 60.851 10.3681 61.875 13.1841C62.899 16.0001 63.411 19.2001 63.411 22.7841C63.411 26.4961 62.899 29.7814 61.875 32.6401C60.851 35.4561 59.443 37.8241 57.651 39.7441C55.9017 41.6641 53.8324 43.1148 51.443 44.0961C49.0537 45.0775 46.515 45.5681 43.827 45.5681C41.139 45.5681 38.6004 45.0775 36.211 44.0961C33.8217 43.0721 31.731 41.6001 29.939 39.6801C28.1897 37.7174 26.803 35.3281 25.779 32.5121C24.755 29.6535 24.243 26.4108 24.243 22.7841C24.243 19.2428 24.755 16.0641 25.779 13.2481C26.803 10.4321 28.1897 8.04278 29.939 6.08012C31.731 4.11745 33.8217 2.62412 36.211 1.60012C38.6004 0.533449 41.139 0.000114441 43.827 0.000114441ZM43.827 44.4161C45.7044 44.4161 47.475 43.9468 49.139 43.0081C50.803 42.0695 52.2537 40.7041 53.491 38.9121C54.7284 37.0775 55.7097 34.8161 56.435 32.1281C57.1604 29.4401 57.523 26.3468 57.523 22.8481C57.523 19.4774 57.1604 16.4694 56.435 13.8241C55.7097 11.1361 54.7284 8.87478 53.491 7.04012C52.2537 5.16278 50.803 3.73345 49.139 2.75211C47.475 1.77078 45.7044 1.28011 43.827 1.28011C41.9497 1.28011 40.179 1.77078 38.515 2.75211C36.851 3.73345 35.4004 5.16278 34.163 7.04012C32.9257 8.87478 31.9444 11.1361 31.219 13.8241C30.4937 16.4694 30.131 19.4774 30.131 22.8481C30.131 26.3041 30.4937 29.3761 31.219 32.0641C31.9444 34.7095 32.9257 36.9495 34.163 38.7841C35.4004 40.6188 36.851 42.0268 38.515 43.0081C40.179 43.9468 41.9497 44.4161 43.827 44.4161ZM90.2735 0.000114441C92.9615 0.000114441 95.5002 0.533449 97.8895 1.60012C100.279 2.62412 102.348 4.11745 104.098 6.08012C105.89 8.00012 107.298 10.3681 108.322 13.1841C109.346 16.0001 109.858 19.2001 109.858 22.7841C109.858 26.4961 109.346 29.7814 108.322 32.6401C107.298 35.4561 105.89 37.8241 104.098 39.7441C102.348 41.6641 100.279 43.1148 97.8895 44.0961C95.5002 45.0775 92.9615 45.5681 90.2735 45.5681C87.5855 45.5681 85.0469 45.0775 82.6575 44.0961C80.2682 43.0721 78.1775 41.6001 76.3855 39.6801C74.6362 37.7174 73.2495 35.3281 72.2255 32.5121C71.2015 29.6535 70.6895 26.4108 70.6895 22.7841C70.6895 19.2428 71.2015 16.0641 72.2255 13.2481C73.2495 10.4321 74.6362 8.04278 76.3855 6.08012C78.1775 4.11745 80.2682 2.62412 82.6575 1.60012C85.0469 0.533449 87.5855 0.000114441 90.2735 0.000114441ZM90.2735 44.4161C92.1509 44.4161 93.9215 43.9468 95.5855 43.0081C97.2495 42.0695 98.7002 40.7041 99.9375 38.9121C101.175 37.0775 102.156 34.8161 102.882 32.1281C103.607 29.4401 103.97 26.3468 103.97 22.8481C103.97 19.4774 103.607 16.4694 102.882 13.8241C102.156 11.1361 101.175 8.87478 99.9375 7.04012C98.7002 5.16278 97.2495 3.73345 95.5855 2.75211C93.9215 1.77078 92.1509 1.28011 90.2735 1.28011C88.3962 1.28011 86.6255 1.77078 84.9615 2.75211C83.2975 3.73345 81.8469 5.16278 80.6095 7.04012C79.3722 8.87478 78.3909 11.1361 77.6655 13.8241C76.9402 16.4694 76.5775 19.4774 76.5775 22.8481C76.5775 26.3041 76.9402 29.3761 77.6655 32.0641C78.3909 34.7095 79.3722 36.9495 80.6095 38.7841C81.8469 40.6188 83.2975 42.0268 84.9615 43.0081C86.6255 43.9468 88.3962 44.4161 90.2735 44.4161ZM136.72 0.000114441C139.408 0.000114441 141.947 0.533449 144.336 1.60012C146.725 2.62412 148.795 4.11745 150.544 6.08012C152.336 8.00012 153.744 10.3681 154.768 13.1841C155.792 16.0001 156.304 19.2001 156.304 22.7841C156.304 26.4961 155.792 29.7814 154.768 32.6401C153.744 35.4561 152.336 37.8241 150.544 39.7441C148.795 41.6641 146.725 43.1148 144.336 44.0961C141.947 45.0775 139.408 45.5681 136.72 45.5681C134.032 45.5681 131.493 45.0775 129.104 44.0961C126.715 43.0721 124.624 41.6001 122.832 39.6801C121.083 37.7174 119.696 35.3281 118.672 32.5121C117.648 29.6535 117.136 26.4108 117.136 22.7841C117.136 19.2428 117.648 16.0641 118.672 13.2481C119.696 10.4321 121.083 8.04278 122.832 6.08012C124.624 4.11745 126.715 2.62412 129.104 1.60012C131.493 0.533449 134.032 0.000114441 136.72 0.000114441ZM136.72 44.4161C138.597 44.4161 140.368 43.9468 142.032 43.0081C143.696 42.0695 145.147 40.7041 146.384 38.9121C147.621 37.0775 148.603 34.8161 149.328 32.1281C150.053 29.4401 150.416 26.3468 150.416 22.8481C150.416 19.4774 150.053 16.4694 149.328 13.8241C148.603 11.1361 147.621 8.87478 146.384 7.04012C145.147 5.16278 143.696 3.73345 142.032 2.75211C140.368 1.77078 138.597 1.28011 136.72 1.28011C134.843 1.28011 133.072 1.77078 131.408 2.75211C129.744 3.73345 128.293 5.16278 127.056 7.04012C125.819 8.87478 124.837 11.1361 124.112 13.8241C123.387 16.4694 123.024 19.4774 123.024 22.8481C123.024 26.3041 123.387 29.3761 124.112 32.0641C124.837 34.7095 125.819 36.9495 127.056 38.7841C128.293 40.6188 129.744 42.0268 131.408 43.0081C133.072 43.9468 134.843 44.4161 136.72 44.4161ZM224.808 3.64812C224.808 3.13612 224.637 2.68812 224.296 2.30412C223.997 1.87745 223.592 1.62145 223.08 1.53611L221.416 1.21611V0.704117H233.896V1.21611L232.232 1.53611C231.72 1.62145 231.293 1.87745 230.952 2.30412C230.653 2.68812 230.504 3.13612 230.504 3.64812V41.9841C230.504 42.4961 230.653 42.9655 230.952 43.3921C231.293 43.7761 231.72 44.0108 232.232 44.0961L233.896 44.4161V44.9281H221.416V44.4161L223.08 44.0961C223.592 44.0108 223.997 43.7761 224.296 43.3921C224.637 42.9655 224.808 42.4961 224.808 41.9841V6.20811L196.712 41.7281V41.9841C196.712 42.4961 196.861 42.9655 197.16 43.3921C197.501 43.7761 197.928 44.0108 198.44 44.0961L200.104 44.4161V44.9281H187.624V44.4161L189.288 44.0961C189.8 44.0108 190.205 43.7761 190.504 43.3921C190.845 42.9655 191.016 42.4961 191.016 41.9841V3.64812C191.016 3.13612 190.845 2.68812 190.504 2.30412C190.205 1.87745 189.8 1.62145 189.288 1.53611L187.624 1.21611V0.704117H200.104V1.21611L198.44 1.53611C197.928 1.62145 197.501 1.87745 197.16 2.30412C196.861 2.68812 196.712 3.13612 196.712 3.64812V39.5521L224.808 4.03212V3.64812ZM280.913 1.92012C280.401 2.00545 279.974 2.26145 279.633 2.68811C279.334 3.07211 279.185 3.52011 279.185 4.03212V42.3681C279.185 42.8801 279.334 43.3495 279.633 43.7761C279.974 44.1601 280.401 44.3948 280.913 44.4801L282.577 44.8001V45.3121H270.097V44.8001L271.761 44.4801C272.273 44.3948 272.678 44.1601 272.977 43.7761C273.318 43.3495 273.489 42.8801 273.489 42.3681V3.96812C272.508 4.60812 271.42 5.05612 270.225 5.31211C269.073 5.52545 267.985 5.67478 266.961 5.76012C265.766 5.84545 264.55 5.82411 263.313 5.69611V4.22411C264.38 4.18145 265.468 4.03211 266.577 3.77612C267.558 3.56278 268.646 3.24278 269.841 2.81612C271.036 2.34678 272.23 1.72811 273.425 0.960114H282.513V1.47211L280.849 1.79211L280.913 1.92012ZM358.078 1.53611C357.566 1.62145 357.139 1.87745 356.798 2.30412C356.499 2.68812 356.35 3.13612 356.35 3.64812V41.9841C356.35 42.4961 356.499 42.9655 356.798 43.3921C357.139 43.7761 357.566 44.0108 358.078 44.0961L359.742 44.4161V44.9281H347.262V44.4161L348.926 44.0961C349.438 44.0108 349.843 43.7761 350.142 43.3921C350.483 42.9655 350.654 42.4961 350.654 41.9841V19.5841C349.246 20.3094 347.262 20.7148 344.702 20.8001C342.142 20.8428 338.792 20.3094 334.654 19.2001C334.611 19.2001 334.419 19.1574 334.078 19.0721C333.779 18.9441 333.438 18.8374 333.054 18.7521C332.67 18.6668 332.307 18.5814 331.966 18.4961C331.667 18.3681 331.496 18.3041 331.454 18.3041C329.363 17.7494 327.592 17.5148 326.142 17.6001C324.734 17.6854 323.56 18.0054 322.622 18.5601V41.9841C322.622 42.4961 322.771 42.9655 323.07 43.3921C323.411 43.7761 323.838 44.0108 324.35 44.0961L326.014 44.4161V44.9281H313.534V44.4161L315.198 44.0961C315.71 44.0108 316.115 43.7761 316.414 43.3921C316.755 42.9655 316.926 42.4961 316.926 41.9841V3.64812C316.926 3.13612 316.755 2.68812 316.414 2.30412C316.115 1.87745 315.71 1.62145 315.198 1.53611L313.534 1.21611V0.704117H326.014V1.21611L324.35 1.53611C323.838 1.62145 323.411 1.87745 323.07 2.30412C322.771 2.68812 322.622 3.13612 322.622 3.64812V16.8961C323.944 16.0854 325.63 15.6161 327.678 15.4881C329.768 15.3601 332.392 15.7228 335.55 16.5761C339.816 17.6854 343.123 18.3041 345.47 18.4321C347.859 18.5601 349.63 18.3681 350.782 17.8561V3.64812C350.782 3.13612 350.611 2.68812 350.27 2.30412C349.971 1.87745 349.566 1.62145 349.054 1.53611L347.39 1.21611V0.704117H359.87V1.21611L358.206 1.53611H358.078ZM388.221 0.000114441C391.464 0.000114441 394.493 0.597448 397.309 1.79211C400.168 2.98678 402.642 4.62945 404.733 6.72012C406.866 8.76811 408.552 11.1788 409.789 13.9521C411.026 16.7254 411.645 19.6908 411.645 22.8481C411.645 26.0054 411.026 28.9708 409.789 31.7441C408.552 34.5175 406.866 36.9495 404.733 39.0401C402.642 41.0881 400.168 42.7095 397.309 43.9041C394.493 45.0988 391.464 45.6961 388.221 45.6961C384.978 45.6961 381.928 45.0988 379.069 43.9041C376.253 42.7095 373.778 41.0881 371.645 39.0401C369.554 36.9495 367.89 34.5175 366.653 31.7441C365.416 28.9708 364.797 26.0054 364.797 22.8481C364.797 19.6908 365.416 16.7254 366.653 13.9521C367.89 11.1788 369.554 8.76811 371.645 6.72012C373.778 4.62945 376.253 2.98678 379.069 1.79211C381.928 0.597448 384.978 0.000114441 388.221 0.000114441ZM388.221 44.4161C390.653 44.4161 392.914 43.8615 395.005 42.7521C397.138 41.6001 398.994 40.0641 400.573 38.1441C402.194 36.1815 403.453 33.8988 404.349 31.2961C405.288 28.6508 405.757 25.8348 405.757 22.8481C405.757 19.8614 405.288 17.0668 404.349 14.4641C403.453 11.8614 402.194 9.57878 400.573 7.61612C398.994 5.65345 397.138 4.11745 395.005 3.00811C392.914 1.85611 390.653 1.28011 388.221 1.28011C385.789 1.28011 383.506 1.85611 381.373 3.00811C379.282 4.11745 377.426 5.65345 375.805 7.61612C374.226 9.57878 372.968 11.8614 372.029 14.4641C371.133 17.0668 370.685 19.8614 370.685 22.8481C370.685 25.8348 371.133 28.6508 372.029 31.2961C372.968 33.8988 374.226 36.1815 375.805 38.1441C377.426 40.0641 379.282 41.6001 381.373 42.7521C383.506 43.8615 385.789 44.4161 388.221 44.4161ZM452.523 19.8401V3.64812C452.523 3.13612 452.352 2.68812 452.011 2.30412C451.712 1.87745 451.307 1.62145 450.795 1.53611L449.131 1.21611V0.704117H461.611V1.21611L459.947 1.53611C459.435 1.62145 459.008 1.87745 458.667 2.30412C458.368 2.68812 458.219 3.13612 458.219 3.64812V42.1761C458.219 42.6881 458.368 43.1575 458.667 43.5841C459.008 43.9681 459.435 44.2028 459.947 44.2881L461.611 44.6081V45.1201H449.131V44.6081L450.795 44.2881C451.307 44.2028 451.712 43.9681 452.011 43.5841C452.352 43.1575 452.523 42.6881 452.523 42.1761V22.0161C451.883 22.6561 451.221 23.2321 450.539 23.7441C449.301 24.5974 447.787 25.2801 445.995 25.7921C444.245 26.3041 442.283 26.5601 440.107 26.5601C435.797 26.5601 432.277 26.1548 429.547 25.3441C426.859 24.4908 424.747 23.3601 423.211 21.9521C421.675 20.5014 420.629 18.8374 420.075 16.9601C419.52 15.0828 419.243 13.0988 419.243 11.0081V3.64812C419.243 3.13612 419.072 2.68812 418.731 2.30412C418.432 1.87745 418.027 1.62145 417.515 1.53611L415.851 1.21611V0.704117H428.331V1.21611L426.667 1.53611C426.155 1.62145 425.728 1.87745 425.387 2.30412C425.088 2.68812 424.939 3.13612 424.939 3.64812V11.0081C424.939 15.6588 426.304 19.1574 429.035 21.5041C431.765 23.8508 435.52 25.0241 440.299 25.0241C442.987 25.0241 445.291 24.6401 447.211 23.8721C449.173 23.0614 450.709 22.0161 451.819 20.7361C451.947 20.5654 452.075 20.4161 452.203 20.2881C452.331 20.1601 452.437 20.0108 452.523 19.8401ZM475.146 3.77612V22.8481C477.876 20.2881 480.714 18.5814 483.658 17.7281C486.602 16.8321 489.29 16.6828 491.722 17.2801C493.556 17.7494 495.071 18.5814 496.266 19.7761C497.503 20.9708 498.42 22.3788 499.018 24.0001C499.615 25.5788 499.914 27.3068 499.914 29.1841C499.914 31.0614 499.615 32.8961 499.018 34.6881C498.463 36.4375 497.61 38.1015 496.458 39.6801C495.348 41.2161 493.962 42.4535 492.298 43.3921C490.847 44.2455 489.311 44.8215 487.69 45.1201C486.111 45.3761 484.554 45.5041 483.018 45.5041C481.524 45.5041 480.095 45.4401 478.73 45.3121C477.407 45.1841 476.276 45.1201 475.338 45.1201H466.378V44.6081L468.042 44.2881C468.554 44.2028 468.959 43.9681 469.258 43.5841C469.599 43.1575 469.77 42.6881 469.77 42.1761V3.52011C469.77 3.09345 469.599 2.68812 469.258 2.30412C468.959 1.87745 468.554 1.62145 468.042 1.53611L466.378 1.21611V0.704117H478.538V1.21611L476.874 1.53611C476.362 1.62145 475.935 1.87745 475.594 2.30412C475.295 2.68812 475.146 3.13612 475.146 3.64812V3.77612ZM494.218 29.0561C494.303 26.7094 494.004 24.8108 493.322 23.3601C492.639 21.9094 491.722 20.8428 490.57 20.1601C489.46 19.4774 488.18 19.1361 486.73 19.1361C485.322 19.1361 483.892 19.3921 482.442 19.9041C480.991 20.3734 479.604 21.0561 478.282 21.9521C477.002 22.8054 475.935 23.7868 475.082 24.8961V42.3681C476.916 43.5201 478.922 44.1388 481.098 44.2241C483.274 44.2668 485.3 43.7548 487.178 42.6881C489.055 41.5788 490.655 39.8935 491.978 37.6321C493.3 35.3708 494.026 32.5121 494.154 29.0561H494.218Z" fill="#46463D"/>
</svg>
