<svg width="18" height="18" viewBox="0 0 18 18" fill="none" xmlns="http://www.w3.org/2000/svg">
<path d="M9.00307 5.78613C8.52735 5.78613 8.22907 5.93913 8.0705 6.19756C7.93121 6.42385 7.93164 6.69085 7.93164 6.84299V6.85756C7.93164 7.07442 8.00107 7.30028 8.19178 7.46828C8.20664 7.48142 8.22193 7.49399 8.23764 7.50599C8.17175 7.56004 8.11527 7.62462 8.0705 7.69713C7.93121 7.92428 7.93164 8.19085 7.93164 8.34299V8.35756C7.93164 8.57442 8.00107 8.80028 8.19178 8.96828C8.37907 9.13285 8.65164 9.2147 9.00307 9.2147C9.34293 9.2147 9.61336 9.13199 9.80193 8.97042C9.9935 8.80585 10.0745 8.5817 10.0745 8.35756V8.33742C10.0745 8.15999 10.0754 7.88956 9.93307 7.66928C9.88976 7.60235 9.83575 7.54299 9.77321 7.49356L9.8015 7.47042C9.9935 7.30585 10.0745 7.0817 10.0745 6.85756V6.83742C10.0745 6.65999 10.0749 6.38956 9.93307 6.16928C9.77021 5.91642 9.46807 5.78613 9.00307 5.78613ZM9.00307 7.28613C8.64821 7.28613 8.44593 7.04613 8.44593 6.75042C8.44593 6.4547 8.64821 6.2147 9.00307 6.2147C9.35793 6.2147 9.57393 6.4547 9.57393 6.75042C9.57393 7.04613 9.35793 7.28613 9.00307 7.28613ZM9.57393 8.25042C9.57393 8.54613 9.35835 8.78613 9.00307 8.78613C8.64821 8.78613 8.44593 8.54613 8.44593 8.25042C8.44593 7.9547 8.64821 7.7147 9.00307 7.7147C9.35793 7.7147 9.57393 7.9547 9.57393 8.25042Z" fill="#D9D5A6"/>
<path d="M9 13.5C12.3137 13.5 15 10.8137 15 7.5C15 4.18629 12.3137 1.5 9 1.5C5.68629 1.5 3 4.18629 3 7.5C3 10.8137 5.68629 13.5 9 13.5ZM9 10.5C8.20435 10.5 7.44129 10.1839 6.87868 9.62132C6.31607 9.05871 6 8.29565 6 7.5C6 6.70435 6.31607 5.94129 6.87868 5.37868C7.44129 4.81607 8.20435 4.5 9 4.5C9.79565 4.5 10.5587 4.81607 11.1213 5.37868C11.6839 5.94129 12 6.70435 12 7.5C12 8.29565 11.6839 9.05871 11.1213 9.62132C10.5587 10.1839 9.79565 10.5 9 10.5Z" fill="#D9D5A6"/>
</svg>
