<svg width="18" height="18" viewBox="0 0 18 18" fill="none" xmlns="http://www.w3.org/2000/svg">
<path d="M16.5 16.5H1.5V15H16.5V16.5ZM16.5 4.5H1.5V2.25H16.5V4.5ZM15 5.25V14.25H12.75V8.25C12.75 8.25 10.875 7.5 9 7.5C7.125 7.5 5.25 8.25 5.25 8.25V14.25H3V5.25H15ZM10.875 11.0025H10.8525L11.1075 11.415L11.1525 11.505C11.4675 12.2625 11.25 13.125 10.6575 13.68C10.125 14.175 9.375 14.3025 8.685 14.2125C8.0325 14.13 7.425 13.7175 7.0875 13.1475C6.975 12.975 6.8925 12.7725 6.8475 12.5775L6.75 12.0825C6.72 11.3625 7.005 10.605 7.545 10.155C7.2975 10.695 7.3575 11.37 7.725 11.8425L7.77 11.9025C7.83 11.955 7.9125 11.9775 7.98 11.94C8.0475 11.9175 8.1 11.85 8.1 11.775L8.07 11.67C7.6725 10.6275 8.01 9.4125 8.8425 8.7225C9.075 8.535 9.375 8.3625 9.6525 8.2875C9.345 8.9025 9.4575 9.6975 9.9375 10.1775L10.605 10.725L10.875 11.0025ZM9.8325 13.08C10.0275 12.9 10.1475 12.6 10.125 12.33V12.1875C10.035 11.7375 9.6375 11.595 9.375 11.25L9.195 10.9125C9.0975 11.1375 9.09 11.3475 9.1275 11.595C9.1725 11.85 9.2775 12.0675 9.2175 12.33C9.15 12.6225 8.925 12.915 8.5275 13.0125C8.7525 13.23 9.1125 13.4025 9.48 13.2825L9.8325 13.08Z" fill="#D9D5A6"/>
</svg>
