<svg width="18" height="18" viewBox="0 0 18 18" fill="none" xmlns="http://www.w3.org/2000/svg">
<g clip-path="url(#clip0_39_314)">
<path d="M9 2C5.68286 2 3 4.6605 3 7.95C3 12.4125 9 19 9 19C9 19 15 12.4125 15 7.95C15 4.6605 12.3171 2 9 2ZM9 10.075C8.43168 10.075 7.88663 9.85112 7.48477 9.4526C7.08291 9.05409 6.85714 8.51359 6.85714 7.95C6.85714 7.38642 7.08291 6.84591 7.48477 6.4474C7.88663 6.04888 8.43168 5.825 9 5.825C9.56832 5.825 10.1134 6.04888 10.5152 6.4474C10.9171 6.84591 11.1429 7.38642 11.1429 7.95C11.1429 8.51359 10.9171 9.05409 10.5152 9.4526C10.1134 9.85112 9.56832 10.075 9 10.075Z" fill="#D9D5A6"/>
</g>
<defs>
<clipPath id="clip0_39_314">
<rect width="18" height="18" fill="white"/>
</clipPath>
</defs>
</svg>
