<svg width="156" height="24" viewBox="0 0 156 24" fill="none" xmlns="http://www.w3.org/2000/svg">
<path d="M12 2C6.48 2 2 6.48 2 12C2 17.52 6.48 22 12 22C17.52 22 22 17.52 22 12C22 6.48 17.52 2 12 2ZM16.64 8.8C16.49 10.38 15.84 14.22 15.51 15.99C15.37 16.74 15.09 16.99 14.83 17.02C14.25 17.07 13.81 16.64 13.25 16.27C12.37 15.69 11.87 15.33 11.02 14.77C10.03 14.12 10.67 13.76 11.24 13.18C11.39 13.03 13.95 10.7 14 10.49C14.0069 10.4582 14.006 10.4252 13.9973 10.3938C13.9886 10.3624 13.9724 10.3337 13.95 10.31C13.89 10.26 13.81 10.28 13.74 10.29C13.65 10.31 12.25 11.24 9.52 13.08C9.12 13.35 8.76 13.49 8.44 13.48C8.08 13.47 7.4 13.28 6.89 13.11C6.26 12.91 5.77 12.8 5.81 12.45C5.83 12.27 6.08 12.09 6.55 11.9C9.47 10.63 11.41 9.79 12.38 9.39C15.16 8.23 15.73 8.03 16.11 8.03C16.19 8.03 16.38 8.05 16.5 8.15C16.6 8.23 16.63 8.34 16.64 8.42C16.63 8.48 16.65 8.66 16.64 8.8Z" fill="#EBE9C6"/>
<path d="M85.0508 4.91005C84.1338 3.98416 83.0418 3.25002 81.8383 2.75042C80.6348 2.25081 79.3439 1.99574 78.0408 2.00005C72.5808 2.00005 68.1308 6.45005 68.1308 11.9101C68.1308 13.6601 68.5908 15.3601 69.4508 16.8601L68.0508 22.0001L73.3008 20.6201C74.7508 21.4101 76.3808 21.8301 78.0408 21.8301C83.5008 21.8301 87.9508 17.3801 87.9508 11.9201C87.9508 9.27005 86.9208 6.78005 85.0508 4.91005ZM78.0408 20.1501C76.5608 20.1501 75.1108 19.7501 73.8408 19.0001L73.5408 18.8201L70.4208 19.6401L71.2508 16.6001L71.0508 16.2901C70.2283 14.9771 69.7917 13.4593 69.7908 11.9101C69.7908 7.37005 73.4908 3.67005 78.0308 3.67005C80.2308 3.67005 82.3008 4.53005 83.8508 6.09005C84.6184 6.85392 85.2267 7.7626 85.6404 8.76338C86.0541 9.76417 86.265 10.8371 86.2608 11.9201C86.2808 16.4601 82.5808 20.1501 78.0408 20.1501ZM82.5608 13.9901C82.3108 13.8701 81.0908 13.2701 80.8708 13.1801C80.6408 13.1001 80.4808 13.0601 80.3108 13.3001C80.1408 13.5501 79.6708 14.1101 79.5308 14.2701C79.3908 14.4401 79.2408 14.4601 78.9908 14.3301C78.7408 14.2101 77.9408 13.9401 77.0008 13.1001C76.2608 12.4401 75.7708 11.6301 75.6208 11.3801C75.4808 11.1301 75.6008 11.0001 75.7308 10.8701C75.8408 10.7601 75.9808 10.5801 76.1008 10.4401C76.2208 10.3001 76.2708 10.1901 76.3508 10.0301C76.4308 9.86005 76.3908 9.72005 76.3308 9.60005C76.2708 9.48005 75.7708 8.26005 75.5708 7.76005C75.3708 7.28005 75.1608 7.34005 75.0108 7.33005H74.5308C74.3608 7.33005 74.1008 7.39005 73.8708 7.64005C73.6508 7.89005 73.0108 8.49005 73.0108 9.71005C73.0108 10.9301 73.9008 12.1101 74.0208 12.2701C74.1408 12.4401 75.7708 14.9401 78.2508 16.0101C78.8408 16.2701 79.3008 16.4201 79.6608 16.5301C80.2508 16.7201 80.7908 16.6901 81.2208 16.6301C81.7008 16.5601 82.6908 16.0301 82.8908 15.4501C83.1008 14.8701 83.1008 14.3801 83.0308 14.2701C82.9608 14.1601 82.8108 14.1101 82.5608 13.9901Z" fill="#EBE9C6"/>
<path d="M144.879 5.04977C148.059 5.44977 150.549 7.93977 150.949 11.1198C151.009 11.6298 151.439 11.9998 151.939 11.9998C151.979 11.9998 152.019 11.9998 152.059 11.9898C152.609 11.9198 152.999 11.4198 152.929 10.8698C152.683 8.88391 151.782 7.03697 150.367 5.62206C148.952 4.20715 147.105 3.30535 145.119 3.05977C144.569 2.99977 144.069 3.38977 144.009 3.93977C143.939 4.48977 144.329 4.98977 144.879 5.04977ZM145.259 7.15977C144.729 7.01977 144.179 7.33977 144.039 7.87977C143.899 8.41977 144.219 8.95977 144.759 9.09977C145.276 9.23408 145.749 9.50421 146.127 9.88221C146.505 10.2602 146.775 10.7323 146.909 11.2498C146.976 11.5068 147.142 11.727 147.37 11.862C147.599 11.9969 147.872 12.0357 148.129 11.9698C148.659 11.8298 148.979 11.2798 148.849 10.7498C148.624 9.88629 148.172 9.09848 147.541 8.46747C146.91 7.83646 146.123 7.38506 145.259 7.15977ZM151.229 15.2598L148.689 14.9698C148.39 14.9347 148.088 14.9678 147.804 15.0665C147.52 15.1652 147.262 15.327 147.049 15.5398L145.209 17.3798C142.37 15.9357 140.063 13.6284 138.619 10.7898L140.469 8.93977C140.899 8.50977 141.109 7.90977 141.039 7.29977L140.749 4.77977C140.693 4.29186 140.459 3.84179 140.092 3.51536C139.725 3.18893 139.25 3.00897 138.759 3.00977H137.029C135.899 3.00977 134.959 3.94977 135.029 5.07977C135.559 13.6198 142.389 20.4398 150.919 20.9698C152.049 21.0398 152.989 20.0998 152.989 18.9698V17.2398C152.999 16.2298 152.239 15.3798 151.229 15.2598Z" fill="#EBE9C6"/>
</svg>
