<svg width="18" height="18" viewBox="0 0 18 18" fill="none" xmlns="http://www.w3.org/2000/svg">
<path fill-rule="evenodd" clip-rule="evenodd" d="M9.12595 5.79365C9.62255 6.18546 10.2545 6.36396 10.8827 6.28986C11.5109 6.21577 12.0839 5.89515 12.4757 5.39855C12.8676 4.90194 13.0461 4.27003 12.972 3.64182C12.8979 3.01361 12.5773 2.44056 12.0806 2.04875C11.5832 1.66813 10.956 1.49848 10.3345 1.57644C9.71305 1.65439 9.14718 1.9737 8.75915 2.46538C8.37113 2.95706 8.19209 3.58165 8.26072 4.20422C8.32935 4.8268 8.64014 5.39829 9.12595 5.79365ZM8.56795 6.49925C9.25193 7.03894 10.1223 7.28481 10.9875 7.18278C11.416 7.13226 11.8303 6.99785 12.2068 6.78722C12.5833 6.57659 12.9146 6.29387 13.1818 5.9552C13.449 5.61652 13.6469 5.22853 13.7642 4.81338C13.8815 4.39822 13.9159 3.96403 13.8653 3.53559C13.8148 3.10716 13.6804 2.69287 13.4698 2.31638C13.2591 1.93989 12.9764 1.60857 12.6377 1.34135C11.9523 0.820493 11.0898 0.589525 10.2358 0.698135C9.3818 0.806746 8.60456 1.24626 8.07132 1.9221C7.53807 2.59794 7.29144 3.4561 7.38449 4.31194C7.47754 5.16778 7.90282 5.95289 8.56885 6.49835" fill="#D9D5A6"/>
<path fill-rule="evenodd" clip-rule="evenodd" d="M7.77087 4.80725C7.86871 4.87553 7.93543 4.97988 7.95636 5.09734C7.97729 5.21481 7.95071 5.33578 7.88247 5.43365L4.06917 10.8904C4.0353 10.9388 3.99223 10.9801 3.9424 11.0119C3.89257 11.0437 3.83697 11.0654 3.77876 11.0757C3.6612 11.0966 3.54018 11.0699 3.44232 11.0015C3.34445 10.9331 3.27776 10.8287 3.25692 10.7111C3.23607 10.5935 3.26278 10.4725 3.33117 10.3747L7.14447 4.91885C7.17835 4.87035 7.22147 4.829 7.27135 4.79718C7.32123 4.76536 7.37689 4.74369 7.43516 4.73341C7.49342 4.72313 7.55315 4.72444 7.61091 4.73726C7.66866 4.75009 7.72333 4.77418 7.77177 4.80815M11.1045 6.46775C11.0156 6.38815 10.8987 6.34713 10.7795 6.35371C10.6603 6.36029 10.5487 6.41394 10.4691 6.50285L10.2621 6.73415L10.0146 7.00865C9.99246 7.02561 9.97197 7.0446 9.95337 7.06535C9.2135 7.89108 8.46949 8.71309 7.72137 9.53135C7.07427 10.2424 6.42537 10.9534 5.48487 12.0037L6.15537 12.604C6.9947 11.6678 7.83891 10.7359 8.68797 9.80855C9.39717 9.03095 10.1082 8.25155 10.9308 7.33535L11.1396 7.10315C11.2192 7.01423 11.2602 6.89734 11.2536 6.77818C11.247 6.65902 11.1934 6.54736 11.1045 6.46775Z" fill="#D9D5A6"/>
<path fill-rule="evenodd" clip-rule="evenodd" d="M3.34656 10.3528C3.38316 10.3063 3.42857 10.2675 3.48019 10.2385C3.53182 10.2096 3.58864 10.1912 3.64741 10.1842C3.70618 10.1773 3.76574 10.182 3.82269 10.1981C3.87963 10.2142 3.93283 10.2414 3.97926 10.2781L6.09876 11.9503C6.19245 12.0243 6.2529 12.1325 6.26683 12.251C6.28075 12.3696 6.247 12.4889 6.17301 12.5826C6.09901 12.6762 5.99083 12.7367 5.87226 12.7506C5.75369 12.7645 5.63445 12.7308 5.54076 12.6568L3.42126 10.9846C3.3276 10.9107 3.26712 10.8026 3.25311 10.6842C3.23911 10.5657 3.27272 10.4465 3.34656 10.3528ZM9.13536 3.3949L8.39556 2.2699L9.14796 1.7749L9.88686 2.8999C10.3679 3.63287 11.0737 4.18996 11.8984 4.4875L13.1647 4.9438L12.8587 5.7898L11.5933 5.3335C10.5858 4.9702 9.72338 4.28997 9.13536 3.3949Z" fill="#D9D5A6"/>
<path fill-rule="evenodd" clip-rule="evenodd" d="M15.5836 10.643L15.5701 10.6457L15.5314 10.652C15.3006 10.6933 15.0702 10.7368 14.8402 10.7825C14.3902 10.8698 13.789 10.9913 13.177 11.1308C12.9268 11.1884 12.727 11.2316 12.5605 11.2685C12.223 11.3423 12.0205 11.3864 11.8171 11.4503C11.5291 11.5394 11.2483 11.6663 10.5751 11.9966C10.2097 12.1766 9.85329 12.4736 9.48519 12.8516C9.21242 13.1382 8.9483 13.4329 8.69319 13.7354C8.58999 13.8554 8.48469 13.9766 8.37729 14.099C8.00109 14.5283 7.59789 14.963 7.15509 15.305C6.70959 15.6497 6.20109 15.9179 5.61249 15.9854C5.22909 16.0304 4.82769 16.0304 4.46679 15.9809C4.12119 15.9332 3.75309 15.8315 3.48849 15.6227C3.01779 15.251 2.70279 14.6228 2.86209 13.7606C2.90619 13.5239 3.04929 13.2467 3.18879 13.0082C3.33909 12.7526 3.52449 12.4772 3.70179 12.2288C3.90605 11.9414 4.11762 11.6593 4.33629 11.3828L4.38129 11.3288L4.39209 11.3135L4.39659 11.3081C4.47232 11.2177 4.58051 11.1606 4.69788 11.1492C4.81526 11.1377 4.93243 11.1728 5.02419 11.2469C5.11595 11.3209 5.17497 11.4281 5.18855 11.5452C5.20213 11.6624 5.16918 11.7802 5.09679 11.8733L5.09409 11.8769L5.08329 11.8904L5.04189 11.9417C4.83253 12.2061 4.62997 12.4759 4.43439 12.7508C4.26879 12.9818 4.11236 13.2193 3.96549 13.4627C3.82419 13.703 3.75849 13.8587 3.74679 13.9244C3.64869 14.4554 3.83589 14.7506 4.04649 14.9162C4.12299 14.9765 4.30029 15.0494 4.59009 15.089C4.89544 15.1273 5.20433 15.1282 5.50989 15.0917C5.88249 15.0485 6.23889 14.8757 6.60519 14.5931C6.97419 14.3078 7.32969 13.9298 7.70049 13.5059L7.99389 13.1675C8.26749 12.8498 8.55189 12.5195 8.83989 12.2234C9.23769 11.8166 9.67689 11.435 10.1782 11.1884C10.8442 10.8617 11.1862 10.7033 11.5498 10.5908C11.7919 10.5152 12.0475 10.4594 12.4156 10.3784C12.5764 10.3436 12.7636 10.3019 12.9772 10.2533C13.7209 10.0847 14.4681 9.93167 15.2182 9.79425L15.3712 9.76725L15.4126 9.75916L15.4261 9.75645C15.5437 9.73557 15.6647 9.76224 15.7626 9.8306C15.8605 9.89895 15.9272 10.0034 15.9481 10.121C15.969 10.2385 15.9423 10.3596 15.874 10.4574C15.8056 10.5553 15.7011 10.6221 15.5836 10.643Z" fill="#D9D5A6"/>
</svg>
