<svg width="18" height="18" viewBox="0 0 18 18" fill="none" xmlns="http://www.w3.org/2000/svg">
<path d="M9.65979 3.78733C12.0448 4.08733 13.9123 5.95483 14.2123 8.33983C14.2573 8.72233 14.5798 8.99983 14.9548 8.99983C14.9848 8.99983 15.0148 8.99983 15.0448 8.99233C15.4573 8.93983 15.7498 8.56483 15.6973 8.15233C15.5131 6.66294 14.8367 5.27773 13.7756 4.21655C12.7144 3.15537 11.3292 2.47901 9.83979 2.29483C9.42729 2.24983 9.05229 2.54233 9.00729 2.95483C8.95479 3.36733 9.24729 3.74233 9.65979 3.78733ZM9.94479 5.36983C9.54729 5.26483 9.13479 5.50483 9.02979 5.90983C8.92479 6.31483 9.16479 6.71983 9.56979 6.82483C9.95785 6.92556 10.312 7.12816 10.5955 7.41166C10.879 7.69516 11.0816 8.04926 11.1823 8.43733C11.2322 8.63013 11.3566 8.79525 11.5282 8.89648C11.6997 8.99771 11.9044 9.02678 12.0973 8.97733C12.4948 8.87233 12.7348 8.45983 12.6373 8.06233C12.4683 7.41472 12.1298 6.82386 11.6565 6.35061C11.1833 5.87735 10.5924 5.5388 9.94479 5.36983ZM14.4223 11.4448L12.5173 11.2273C12.2933 11.201 12.0662 11.2258 11.8532 11.2999C11.6402 11.3739 11.4467 11.4953 11.2873 11.6548L9.90729 13.0348C7.77833 11.9518 6.04783 10.2213 4.96479 8.09233L6.35229 6.70483C6.67479 6.38233 6.83229 5.93233 6.77979 5.47483L6.56229 3.58483C6.51992 3.21889 6.34439 2.88134 6.06913 2.63652C5.79388 2.3917 5.43816 2.25672 5.06979 2.25733H3.77229C2.92479 2.25733 2.21979 2.96233 2.27229 3.80983C2.66979 10.2148 7.79229 15.3298 14.1898 15.7273C15.0373 15.7798 15.7423 15.0748 15.7423 14.2273V12.9298C15.7498 12.1723 15.1798 11.5348 14.4223 11.4448Z" fill="#EBE9C6"/>
</svg>
