<svg width="18" height="18" viewBox="0 0 18 18" fill="none" xmlns="http://www.w3.org/2000/svg">
<path d="M3.99375 15C3.63125 15 3.36875 15.1043 3.20625 15.313C3.04375 15.5217 2.81875 15.6673 2.53125 15.75C2.24375 15.8327 2 15.7953 1.8 15.638C1.6 15.4807 1.5 15.243 1.5 14.925C1.5 14.675 1.58125 14.4333 1.74375 14.2C1.90625 13.9667 2.1625 13.7333 2.5125 13.5C2.575 13.45 2.74075 13.354 3.00975 13.212C3.27875 13.07 3.63175 12.9993 4.06875 13C4.75625 13 5.21875 13.1667 5.45625 13.5C5.69375 13.8333 6.04375 14 6.50625 14C6.96875 14 7.31575 13.8333 7.54725 13.5C7.77875 13.1667 8.25675 13 8.98125 13C9.70575 13 10.1965 13.1667 10.4535 13.5C10.7105 13.8333 11.0698 14 11.5313 14C11.9928 14 12.3303 13.8333 12.5438 13.5C12.7573 13.1667 13.2198 13 13.9313 13C14.2188 13 14.497 13.046 14.766 13.138C15.035 13.23 15.3068 13.3673 15.5813 13.55C15.8938 13.7667 16.125 13.9917 16.275 14.225C16.425 14.4583 16.5 14.6917 16.5 14.925C16.5 15.2417 16.4 15.4793 16.2 15.638C16 15.7967 15.7563 15.834 15.4688 15.75C15.1813 15.666 14.9533 15.5203 14.7848 15.313C14.6163 15.1057 14.3568 15.0013 14.0063 15C13.5438 15 13.1968 15.1667 12.9653 15.5C12.7338 15.8333 12.2558 16 11.5313 16C10.8068 16 10.316 15.8333 10.059 15.5C9.802 15.1667 9.44275 15 8.98125 15C8.51975 15 8.17275 15.1667 7.94025 15.5C7.70775 15.8333 7.2235 16 6.4875 16C5.7515 16 5.27025 15.8333 5.04375 15.5C4.81725 15.1667 4.46725 15 3.99375 15ZM3.99375 11C3.64375 11 3.38425 11.1043 3.21525 11.313C3.04625 11.5217 2.81825 11.6673 2.53125 11.75C2.24425 11.8327 2.0005 11.7953 1.8 11.638C1.5995 11.4807 1.4995 11.243 1.5 10.925C1.5 10.675 1.58125 10.4333 1.74375 10.2C1.90625 9.96667 2.1625 9.73333 2.5125 9.5C2.575 9.45 2.74075 9.35433 3.00975 9.213C3.27875 9.07167 3.63175 9.00067 4.06875 9C4.75625 9 5.21875 9.16667 5.45625 9.5C5.69375 9.83333 6.04375 10 6.50625 10C6.96875 10 7.31575 9.83333 7.54725 9.5C7.77875 9.16667 8.25675 9 8.98125 9C9.70575 9 10.1965 9.16667 10.4535 9.5C10.7105 9.83333 11.0635 10 11.5125 10C11.9615 10 12.299 9.83333 12.525 9.5C12.751 9.16667 13.2135 9 13.9125 9C14.35 9 14.7033 9.071 14.9723 9.213C15.2413 9.355 15.4068 9.45067 15.4688 9.5C15.8313 9.75 16.0938 9.98767 16.2563 10.213C16.4188 10.4383 16.5 10.6757 16.5 10.925C16.5 11.2417 16.3968 11.4793 16.1903 11.638C15.9838 11.7967 15.737 11.834 15.45 11.75C15.163 11.666 14.938 11.5203 14.775 11.313C14.612 11.1057 14.3558 11.0013 14.0063 11C13.5438 11 13.197 11.1667 12.966 11.5C12.735 11.8333 12.2568 12 11.5313 12C10.8058 12 10.315 11.8333 10.059 11.5C9.803 11.1667 9.44375 11 8.98125 11C8.51875 11 8.17825 11.1667 7.95975 11.5C7.74125 11.8333 7.263 12 6.525 12C5.787 12 5.29625 11.8333 5.05275 11.5C4.80925 11.1667 4.45625 11 3.99375 11ZM3.99375 7C3.64375 7 3.38425 7.10433 3.21525 7.313C3.04625 7.52167 2.81825 7.66733 2.53125 7.75C2.24425 7.83267 2.0005 7.79533 1.8 7.638C1.5995 7.48067 1.4995 7.243 1.5 6.925C1.5 6.675 1.58125 6.43333 1.74375 6.2C1.90625 5.96667 2.1625 5.73333 2.5125 5.5C2.575 5.45 2.74075 5.35433 3.00975 5.213C3.27875 5.07167 3.63175 5.00067 4.06875 5C4.75625 5 5.21875 5.16667 5.45625 5.5C5.69375 5.83333 6.04375 6 6.50625 6C6.96875 6 7.31575 5.83333 7.54725 5.5C7.77875 5.16667 8.25675 5 8.98125 5C9.70575 5 10.1965 5.16667 10.4535 5.5C10.7105 5.83333 11.0635 6 11.5125 6C11.9615 6 12.299 5.83333 12.525 5.5C12.751 5.16667 13.2135 5 13.9125 5C14.35 5 14.7033 5.071 14.9723 5.213C15.2413 5.355 15.4068 5.45067 15.4688 5.5C15.8313 5.75 16.0938 5.98767 16.2563 6.213C16.4188 6.43833 16.5 6.67567 16.5 6.925C16.5 7.24167 16.3968 7.47933 16.1903 7.638C15.9838 7.79667 15.737 7.834 15.45 7.75C15.163 7.666 14.938 7.52033 14.775 7.313C14.612 7.10567 14.3558 7.00133 14.0063 7C13.5438 7 13.197 7.16667 12.966 7.5C12.735 7.83333 12.2568 8 11.5313 8C10.8058 8 10.315 7.83333 10.059 7.5C9.803 7.16667 9.44375 7 8.98125 7C8.51875 7 8.17825 7.16667 7.95975 7.5C7.74125 7.83333 7.263 8 6.525 8C5.787 8 5.29625 7.83333 5.05275 7.5C4.80925 7.16667 4.45625 7 3.99375 7Z" fill="#D9D5A6"/>
</svg>
