<svg width="24" height="24" viewBox="0 0 24 24" fill="none" xmlns="http://www.w3.org/2000/svg">
<path d="M12.8791 5.04977C16.0591 5.44977 18.5491 7.93977 18.9491 11.1198C19.0091 11.6298 19.4391 11.9998 19.9391 11.9998C19.9791 11.9998 20.0191 11.9998 20.0591 11.9898C20.6091 11.9198 20.9991 11.4198 20.9291 10.8698C20.6835 8.88391 19.7817 7.03697 18.3668 5.62206C16.9519 4.20715 15.1049 3.30535 13.1191 3.05977C12.5691 2.99977 12.0691 3.38977 12.0091 3.93977C11.9391 4.48977 12.3291 4.98977 12.8791 5.04977ZM13.2591 7.15977C12.7291 7.01977 12.1791 7.33977 12.0391 7.87977C11.8991 8.41977 12.2191 8.95977 12.7591 9.09977C13.2765 9.23408 13.7486 9.50421 14.1266 9.88221C14.5046 10.2602 14.7748 10.7323 14.9091 11.2498C14.9757 11.5068 15.1415 11.727 15.3702 11.862C15.5989 11.9969 15.8718 12.0357 16.1291 11.9698C16.6591 11.8298 16.9791 11.2798 16.8491 10.7498C16.6238 9.88629 16.1724 9.09848 15.5414 8.46747C14.9103 7.83646 14.1225 7.38506 13.2591 7.15977ZM19.2291 15.2598L16.6891 14.9698C16.3904 14.9347 16.0877 14.9678 15.8036 15.0665C15.5196 15.1652 15.2616 15.327 15.0491 15.5398L13.2091 17.3798C10.3705 15.9357 8.06313 13.6284 6.61906 10.7898L8.46906 8.93977C8.89906 8.50977 9.10906 7.90977 9.03906 7.29977L8.74906 4.77977C8.69258 4.29186 8.45853 3.84179 8.09153 3.51536C7.72452 3.18893 7.25023 3.00897 6.75906 3.00977H5.02906C3.89906 3.00977 2.95906 3.94977 3.02906 5.07977C3.55906 13.6198 10.3891 20.4398 18.9191 20.9698C20.0491 21.0398 20.9891 20.0998 20.9891 18.9698V17.2398C20.9991 16.2298 20.2391 15.3798 19.2291 15.2598Z" fill="#EBE9C6"/>
</svg>
